<svg width="44" height="41" viewBox="0 0 44 41" fill="none" xmlns="http://www.w3.org/2000/svg">
<g id="Group">
<path id="Vector" d="M14.5556 1.09942C12.978 1.3963 11.4512 2.19362 10.2382 3.33872C8.59268 4.89095 7.68508 6.85034 7.56633 9.08115C7.33732 13.3901 10.2467 17.1223 14.4963 17.9874C15.4717 18.1825 17.3972 18.1147 18.3556 17.8517C19.8061 17.4615 21.0784 16.7151 22.1811 15.6124C23.2838 14.5097 24.0302 13.2374 24.4204 11.787C24.6833 10.8285 24.7512 8.90302 24.5561 7.93606C24.2423 6.40926 23.5298 4.96729 22.5034 3.79675C21.511 2.67711 19.7637 1.61683 18.2284 1.22665C17.2784 0.980671 15.4972 0.921295 14.5556 1.09942Z" fill="black"/>
<path id="Vector_2" d="M34.8551 8.49884C34.3377 8.68545 33.6506 9.38098 33.4725 9.91536C33.3537 10.2546 33.3283 10.6618 33.3283 11.9256V13.5118L31.6573 13.5372C30.0202 13.5711 29.9693 13.5796 29.4943 13.8086C28.5952 14.2497 28.1117 15.0301 28.1202 16.031C28.1287 16.7859 28.3577 17.2948 28.9345 17.8122C29.5537 18.372 29.91 18.4484 31.776 18.4484H33.3283V20.06C33.3283 21.9515 33.4216 22.3332 34.0238 22.9184C34.4649 23.3426 34.8042 23.5122 35.381 23.6225C36.2037 23.7836 37.2216 23.368 37.6881 22.7064C38.1292 22.0618 38.1631 21.8836 38.1631 20.1109V18.4569L39.885 18.4314C41.4203 18.406 41.6408 18.389 41.9886 18.2278C43.473 17.5408 43.8716 15.6069 42.7774 14.3854C42.1413 13.6814 41.802 13.5881 39.8426 13.5457L38.1716 13.5118L38.1461 11.756C38.1207 10.0256 38.1207 10.0087 37.8917 9.61C37.264 8.54974 36.0171 8.0917 34.8551 8.49884Z" fill="black"/>
<path id="Vector_3" d="M10.5943 20.4932C7.85458 20.8494 5.49653 22.02 3.55412 23.9624C1.84072 25.6758 0.763484 27.6521 0.23759 30.0526C0.0764286 30.7651 0.0509821 31.2316 0.0170534 33.6066C-0.0168753 35.9562 -0.00839311 36.4312 0.118839 36.9825C0.458126 38.5008 1.49295 39.824 2.87554 40.4856C3.27421 40.6807 3.84251 40.8758 4.14787 40.9267C4.52957 40.9861 8.22779 41.0115 16.447 40.9946L28.1948 40.9691L28.7462 40.774C30.3917 40.1803 31.6131 38.8825 32.0542 37.2624C32.2323 36.6093 32.2323 36.4566 32.1984 33.6405C32.1645 30.4597 32.1305 30.2137 31.6216 28.687C31.0024 26.8124 30.1203 25.4044 28.6698 23.9539C26.8886 22.1896 25.0649 21.1887 22.5796 20.6374C21.7823 20.4593 21.5618 20.4508 16.447 20.4338C13.5291 20.4253 10.8997 20.4508 10.5943 20.4932Z" fill="black"/>
</g>
</svg>
