<svg width="46" height="46" viewBox="0 0 46 46" fill="none" xmlns="http://www.w3.org/2000/svg">
<g id="Group">
<path id="Vector" d="M14.1559 1.18391C11.6489 1.70495 9.31894 3.30742 7.91309 5.46043C6.82183 7.13171 6.30078 8.9013 6.30078 10.9167C6.30078 15.498 9.26979 19.3321 13.7724 20.5708C14.8932 20.8756 16.9774 20.9247 18.1965 20.6691C22.8859 19.7057 26.1597 15.6946 26.1597 10.9167C26.1597 6.16826 22.8761 2.13752 18.2456 1.17408C17.0855 0.938131 15.3061 0.938131 14.1559 1.18391Z" fill="black"/>
<path id="Vector_2" d="M5.90851 20.4231C2.9985 22.5171 1.10109 25.3976 0.285103 28.9565C0.0983114 29.7331 0.068818 30.2443 0.0393246 33.1838L0 36.5264L0.226116 36.8607C0.353921 37.0475 0.580037 37.2932 0.727504 37.4014C1.00278 37.6078 1.02244 37.6078 11.5418 37.6373L22.0807 37.657V35.8677C22.0906 34.2456 22.1102 33.9605 22.356 33.0069C23.3195 29.1629 25.7576 26.1153 29.287 24.3457C29.6802 24.1491 29.9948 23.9426 29.9751 23.8935C29.8768 23.5985 28.294 21.8388 27.6058 21.2587C26.7604 20.5509 25.9345 19.961 25.7969 19.961C25.7478 19.961 25.5806 20.0987 25.4135 20.2658C25.0104 20.6984 23.6635 21.7306 22.9459 22.1632C20.9108 23.3822 18.6693 23.9918 16.2312 23.9918C12.9378 23.9918 9.77215 22.7629 7.36352 20.5607C7.0096 20.2265 6.67534 19.961 6.62619 19.961C6.57703 19.961 6.2526 20.1675 5.90851 20.4231Z" fill="black"/>
<path id="Vector_3" d="M33.3843 26.2727C30.2678 26.8528 27.6134 28.8288 26.2272 31.611C25.4899 33.0759 25.1753 34.4424 25.1753 36.1137C25.1851 40.813 28.4687 44.8437 33.0992 45.8268C34.3674 46.0923 36.4025 46.0431 37.6117 45.7187C41.4852 44.6668 44.3362 41.5011 44.9457 37.5589C45.103 36.5168 45.0047 34.5604 44.7491 33.5772C44.2575 31.7585 42.9598 29.6841 41.5638 28.5142C40.2759 27.4328 38.5555 26.607 36.9825 26.312C36.0879 26.1449 34.1806 26.1154 33.3843 26.2727ZM36.6876 29.4875C37.4544 29.6841 38.1819 29.9791 38.4768 30.2052C38.6341 30.3231 38.2114 30.7655 33.9938 34.9929L29.3339 39.6431L29.1274 39.3186C28.685 38.601 28.3901 37.4704 28.3409 36.33C28.2918 35.0028 28.4491 34.2261 29.0291 33.0365C29.3535 32.3484 29.5895 32.0436 30.3268 31.3063C31.0641 30.5689 31.3689 30.333 32.0571 30.0085C32.5192 29.7824 33.1582 29.5367 33.4826 29.458C34.3477 29.2516 35.8126 29.2614 36.6876 29.4875ZM41.318 33.3315C41.8784 34.5899 42.0455 36.3595 41.7309 37.6473C41.6425 38.0013 41.3967 38.6698 41.1804 39.1318C40.8461 39.82 40.62 40.115 39.8827 40.8621C39.1453 41.5995 38.8406 41.8256 38.1524 42.1598C37.6903 42.3761 36.9923 42.6317 36.6089 42.7202C35.1834 43.0643 33.0009 42.7595 31.8703 42.0615L31.5459 41.8551L36.196 37.1951C41.3672 32.0338 40.8953 32.3877 41.318 33.3315Z" fill="black"/>
</g>
</svg>
