<?xml version="1.0" standalone="no"?>
<!DOCTYPE svg PUBLIC "-//W3C//DTD SVG 20010904//EN"
 "http://www.w3.org/TR/2001/REC-SVG-20010904/DTD/svg10.dtd">
<svg version="1.0" xmlns="http://www.w3.org/2000/svg"
 width="512.000000pt" height="512.000000pt" viewBox="0 0 512.000000 512.000000"
 preserveAspectRatio="xMidYMid meet">

<g transform="translate(0.000000,512.000000) scale(0.100000,-0.100000)"
fill="#000000" stroke="none">
<path d="M2100 4785 c-504 -79 -906 -466 -1016 -977 -22 -101 -25 -359 -5
-458 96 -486 440 -852 920 -977 132 -34 355 -43 497 -19 513 87 920 490 1009
1000 29 170 17 396 -32 565 -75 262 -258 512 -493 671 -84 57 -248 134 -340
160 -175 49 -371 61 -540 35z"/>
<path d="M1397 2221 c-356 -156 -634 -461 -757 -829 -56 -169 -65 -236 -65
-487 0 -230 0 -230 27 -281 28 -53 87 -112 136 -138 17 -9 90 -27 164 -40 484
-90 1036 -134 1528 -123 233 6 539 23 548 32 2 2 -4 27 -12 56 -22 72 -23 736
-2 814 17 66 56 140 104 201 l39 50 5 150 c4 117 10 164 28 219 30 93 79 189
129 253 23 28 41 54 41 57 0 8 -177 92 -212 100 -22 6 -48 -3 -115 -38 -109
-56 -263 -110 -397 -139 -146 -32 -444 -32 -593 0 -130 28 -253 72 -375 133
-54 27 -106 49 -115 48 -10 0 -57 -17 -106 -38z"/>
<path d="M3750 2101 c-89 -29 -141 -60 -206 -125 -119 -119 -144 -199 -144
-465 l0 -196 -47 -25 c-54 -28 -100 -88 -113 -146 -16 -67 -12 -603 4 -658 20
-66 57 -110 118 -140 l52 -26 469 0 c341 0 481 3 511 12 54 16 131 93 145 144
7 24 11 159 11 354 0 283 -2 319 -19 355 -19 43 -85 109 -120 120 -20 6 -21
12 -21 188 0 205 -12 275 -62 368 -58 110 -155 192 -278 236 -83 29 -217 31
-300 4z m245 -295 c21 -11 53 -40 70 -64 l30 -44 3 -189 3 -189 -208 2 -208 3
-3 154 c-3 187 8 238 66 294 69 67 161 80 247 33z"/>
</g>
</svg>
