<?xml version="1.0" standalone="no"?>
<!DOCTYPE svg PUBLIC "-//W3C//DTD SVG 20010904//EN"
 "http://www.w3.org/TR/2001/REC-SVG-20010904/DTD/svg10.dtd">
<svg version="1.0" xmlns="http://www.w3.org/2000/svg"
 width="512.000000pt" height="512.000000pt" viewBox="0 0 512.000000 512.000000"
 preserveAspectRatio="xMidYMid meet">

<g transform="translate(0.000000,512.000000) scale(0.100000,-0.100000)"
fill="white" stroke="none">
<path d="M425 4781 c-94 -27 -184 -80 -255 -151 -76 -76 -123 -159 -150 -266
-19 -75 -20 -116 -20 -1423 0 -1292 1 -1348 19 -1381 26 -51 84 -82 143 -77
43 4 82 29 485 317 241 172 463 325 493 339 l55 26 1010 5 c1120 6 1038 1
1180 72 84 43 200 162 243 252 63 130 62 102 62 1196 0 1110 5 1038 -69 1087
l-34 23 -1551 -1 c-1438 0 -1555 -2 -1611 -18z m2462 -817 c96 -71 97 -196 1
-254 -32 -19 -53 -20 -944 -20 l-911 0 -34 23 c-61 41 -86 125 -55 185 19 37
58 71 92 82 16 5 433 8 926 7 893 -2 897 -2 925 -23z m0 -700 c96 -71 97 -196
1 -254 -32 -19 -53 -20 -944 -20 l-911 0 -34 23 c-61 41 -86 125 -55 185 19
37 58 71 92 82 16 5 433 8 926 7 893 -2 897 -2 925 -23z"/>
<path d="M3990 3162 c0 -386 -3 -497 -15 -567 -54 -310 -279 -571 -582 -676
-139 -48 -169 -49 -1095 -49 l-870 0 4 -197 c4 -170 8 -208 26 -265 30 -88
110 -207 179 -263 66 -54 177 -109 251 -124 36 -8 354 -11 1007 -11 1003 0
1016 -1 1106 -46 25 -12 230 -154 455 -315 225 -161 423 -300 439 -311 69 -42
170 -12 208 62 16 33 17 114 15 1405 l-3 1370 -27 74 c-63 171 -200 307 -367
363 -62 21 -88 23 -398 26 l-333 3 0 -479z"/>
</g>
</svg>
