<?xml version="1.0" standalone="no"?>
<!DOCTYPE svg PUBLIC "-//W3C//DTD SVG 20010904//EN"
 "http://www.w3.org/TR/2001/REC-SVG-20010904/DTD/svg10.dtd">
<svg version="1.0" xmlns="http://www.w3.org/2000/svg"
 width="40.000000pt" height="40.000000pt" viewBox="0 0 40.000000 40.000000"
 preserveAspectRatio="xMidYMid meet">

<g transform="translate(0.000000,40.000000) scale(0.100000,-0.100000)"
fill="#000000" stroke="none">
<path d="M36 359 c-26 -20 -27 -23 -24 -118 l3 -96 32 -15 c29 -14 33 -19 33
-60 l1 -45 42 48 43 47 92 0 c124 0 132 7 132 129 0 85 -1 91 -26 110 -24 19
-40 21 -164 21 -124 0 -140 -2 -164 -21z m270 -124 c-3 -9 -14 -15 -23 -13
-22 4 -30 38 -11 49 18 11 43 -15 34 -36z m-168 13 c-2 -15 -10 -23 -23 -23
-13 0 -21 8 -23 23 -3 18 1 22 23 22 22 0 26 -4 23 -22z m87 12 c8 -13 -13
-40 -30 -40 -15 0 -28 27 -19 41 7 12 41 11 49 -1z"/>
</g>
</svg>
