<svg width="76" height="135" viewBox="0 0 76 135" fill="none" xmlns="http://www.w3.org/2000/svg">
<path d="M2.82843 99.9437C1.26633 98.3816 1.26633 95.849 2.82843 94.2869L37.9175 59.1978L72.9738 94.254C74.5359 95.8161 74.5359 98.3488 72.9738 99.9109L44.9557 127.929C41.0505 131.834 34.7189 131.834 30.8136 127.929L2.82843 99.9437Z" fill="#F0A03D"/>
<path d="M0 10C0 4.47715 4.47715 0 10 0H66.9376C71.9081 0 75.9376 4.02944 75.9376 9V93.125C75.9376 98.6478 71.4604 103.125 65.9376 103.125H10C4.47716 103.125 0 98.6478 0 93.125V10Z" fill="#F0A03D"/>
<path d="M51.9347 32.7054C51.1243 33.3323 50.3138 34.0324 49.5766 34.8429C48.7662 35.6533 48.0661 36.537 47.4031 37.532L46.1503 34.3263L44.7501 30.6051L37.9706 12.9949L31.1559 30.6793L29.7548 34.2902L28.5391 37.4949C27.922 36.5485 27.2192 35.6607 26.4397 34.8429C25.6663 33.9953 24.8188 33.2581 23.9712 32.5951C19.4025 28.9851 14.3181 27.6582 14.3181 27.6582C14.8346 28.1738 15.276 28.8006 15.6812 29.5369C16.1977 30.4215 16.6391 31.4897 17.0082 32.5951L17.0814 32.7796C19.0714 39.0055 19.0714 47.2584 19.0714 47.2584L56.8346 47.3326C56.8346 47.3326 56.8716 38.6002 59.0452 32.3744C59.3763 31.3794 59.7453 30.4948 60.2238 29.6843L60.298 29.5369C60.6661 28.8739 61.1085 28.2479 61.5879 27.7685C61.5879 27.7685 56.5026 29.0955 51.9347 32.7054ZM37.9586 38.4982C38.8627 38.4982 39.5961 39.8039 39.5961 41.4146C39.5961 43.0253 38.8627 44.3319 37.9586 44.3319C37.0544 44.3319 36.321 43.0253 36.321 41.4146C36.321 39.8039 37.0544 38.4982 37.9586 38.4982ZM24.0575 38.5854C24.8281 38.4445 25.6886 39.6138 25.9798 41.1985C26.2709 42.7823 25.8824 44.1816 25.1118 44.3235C24.3412 44.4645 23.4807 43.2951 23.1895 41.7104C22.8984 40.1266 23.2869 38.7273 24.0575 38.5854ZM50.6866 44.3476C50.6729 44.3467 50.6593 44.3448 50.6458 44.3421C49.9318 44.2113 49.5896 42.8204 49.8808 41.2365C50.1719 39.6518 50.9861 38.4741 51.6992 38.6049C52.4123 38.7356 52.7554 40.1266 52.4642 41.7104C52.1972 43.1625 51.4915 44.2734 50.8257 44.3476C50.7795 44.3532 50.7328 44.3532 50.6866 44.3476Z" fill="white"/>
<path d="M51.9349 88.0236C35.583 88.0755 28.5616 64.1022 28.5616 64.1022C23.8825 71.3203 14.5159 71.3453 14.5159 71.3453C23.8787 66.5169 19.055 52.0168 19.055 52.0168L26.3463 52.0178L51.334 52.0205H56.87C47.5034 64.0568 61.2978 71.2201 61.2978 71.2201C51.9516 71.2452 44.9422 64.0624 44.9422 64.0624C40.2585 80.8714 51.9349 88.0236 51.9349 88.0236Z" fill="white"/>
<path d="M9.62866 72.2344L11.2968 72.7617L12.3213 74.2098L12.8376 72.4993L14.2515 71.4471L12.5836 70.9196L11.5589 69.4709L11.0426 71.1821L9.62866 72.2344Z" fill="white"/>
<path d="M52.2012 88.392L53.1137 89.9075L52.9547 91.6848L54.4361 90.7429L56.1684 90.8983L55.2564 89.3832L55.4157 87.6055L53.934 88.5476L52.2012 88.392Z" fill="white"/>
<path d="M61.7844 71.1338L63.4893 71.4876L64.6419 72.822L64.994 71.0699L66.2985 69.8804L64.5937 69.5264L63.4409 68.1914L63.0889 69.9442L61.7844 71.1338Z" fill="white"/>
</svg>
