<svg width="46" height="30" viewBox="0 0 46 30" fill="none" xmlns="http://www.w3.org/2000/svg">
<g id="Group">
<path id="Vector" d="M11.3516 0.0461998C8.64132 0.320766 6.2765 1.90617 4.42539 4.68726C2.14029 8.11491 0.670027 12.3751 0.112037 17.1756C-0.0562463 18.6459 -0.0296753 22.5607 0.156322 24.0841C0.475173 26.6349 0.918023 27.9634 1.75058 28.8845C2.76914 29.9917 4.53168 30.3194 5.92222 29.664C7.14449 29.0883 9.37645 27.1574 11.4224 24.9166C13.5835 22.5518 13.6455 22.4809 14.2389 22.2152L14.7881 21.9584H22.6265H30.465L31.0407 22.2329C31.5101 22.4544 31.7669 22.6669 32.4135 23.3755C35.974 27.2814 37.8251 28.9554 39.4282 29.6905C39.9862 29.9474 40.1545 29.9828 40.8011 29.9828C43.2102 29.9828 44.4502 28.4771 44.9816 24.9255C45.4333 21.8432 45.389 18.3624 44.8487 15.1385C43.9187 9.54089 41.1819 4.05841 38.1971 1.78217C36.5674 0.542191 35.0352 0.0196285 33.0335 0.0196285C30.8015 0.0196285 28.605 0.745901 26.311 2.24273C25.939 2.48187 25.3722 2.77415 25.0356 2.88929C24.4865 3.07529 24.3005 3.093 22.6265 3.093C20.9525 3.093 20.7665 3.07529 20.2174 2.88929C19.8808 2.77415 19.3229 2.49073 18.9774 2.26044C16.9935 0.967325 14.9386 0.18791 13.2381 0.0727692C12.8218 0.0461998 12.3878 0.0196285 12.2638 0.00191498C12.1398 -0.00694275 11.7324 0.0107708 11.3516 0.0461998ZM32.6792 5.39582C33.7598 6.02466 34.1938 7.48607 33.6269 8.60205C33.2283 9.3726 32.2629 9.95717 31.3861 9.95717C30.5181 9.95717 29.597 9.32832 29.1984 8.46033C29.0124 8.06177 28.9858 7.89349 29.0213 7.35321C29.0656 6.67122 29.2073 6.3258 29.6413 5.83867C30.3498 5.02382 31.7138 4.82011 32.6792 5.39582ZM13.681 6.92808L14.1681 7.0875L14.1947 8.6109L14.2124 10.1343H15.6738H17.1352L17.3743 10.5949C17.702 11.2237 17.7197 12.074 17.4097 12.8091L17.206 13.3228H15.6206H14.0352V14.8374V16.3431L13.619 16.5379C12.9901 16.8302 11.8387 16.8125 11.3161 16.5202L10.9353 16.2988V14.8108V13.3228H9.44731H7.95933L7.81762 13.0305C7.44563 12.2511 7.43677 11.2857 7.78219 10.4532L7.91505 10.1343H9.46502H11.0239V8.58433C11.0239 7.73406 11.0327 7.03436 11.0504 7.03436C11.0593 7.03436 11.2276 6.97236 11.4224 6.90151C11.9096 6.72437 13.0787 6.74208 13.681 6.92808ZM38.826 9.0449C40.1988 9.89517 40.3937 11.7729 39.2245 12.9065C38.8171 13.2963 38.0997 13.5885 37.5506 13.5885C36.6914 13.5885 35.7437 12.9863 35.3363 12.1714C35.106 11.7286 35.0617 10.8694 35.2389 10.3469C35.726 8.88547 37.5151 8.23891 38.826 9.0449ZM32.5109 12.0651C33.3258 12.4814 33.7863 13.1988 33.8572 14.1465C33.8926 14.6868 33.8749 14.7931 33.6092 15.3245C33.1309 16.2988 32.2984 16.7593 31.1735 16.6708C29.8893 16.5645 28.9947 15.5459 29.0124 14.2174C29.0213 13.252 29.4818 12.5257 30.341 12.0917C30.8547 11.826 30.9698 11.8083 31.5278 11.8437C31.9264 11.8614 32.2806 11.95 32.5109 12.0651Z" fill="black"/>
</g>
</svg>
