<svg xmlns="http://www.w3.org/2000/svg" xmlns:xlink="http://www.w3.org/1999/xlink" xmlns:serif="http://www.serif.com/" viewBox="0 0 64 80" version="1.1" xml:space="preserve" style="" x="0px" y="0px" fill-rule="evenodd" clip-rule="evenodd" stroke-linejoin="round" stroke-miterlimit="2"><g transform="matrix(1,0,0,1,-480,-80)"><g transform="matrix(1,0,0,1,480,80)"><rect x="0" y="0" width="64" height="64" style="" fill="none"/><g transform="matrix(2,0,0,2,-492.059,-42)"><path d="M259,24C255.689,24 253,26.689 253,30C253,33.311 255.689,36 259,36C262.311,36 265,33.311 265,30C265,26.689 262.311,24 259,24ZM259,26C261.208,26 263,27.792 263,30C263,32.208 261.208,34 259,34C256.792,34 255,32.208 255,30C255,27.792 256.792,26 259,26Z"/></g><g transform="matrix(2,0,0,2,-498,-40)"><path d="M258.551,33.909C256.431,35.113 255,37.39 255,40C255,40.552 254.552,41 254,41C253.448,41 253,40.552 253,40C253,36.371 255.153,33.24 258.25,31.817C258.612,31.651 259.038,31.716 259.334,31.981C260.042,32.615 260.976,33 262,33C263.024,33 263.958,32.615 264.666,31.981C264.962,31.716 265.388,31.651 265.75,31.817C268.184,32.936 270.035,35.109 270.716,37.75C270.854,38.285 270.532,38.831 269.997,38.968C269.463,39.106 268.917,38.784 268.779,38.25C268.301,36.393 267.078,34.834 265.449,33.909C264.473,34.596 263.284,35 262,35C260.716,35 259.527,34.596 258.551,33.909Z"/></g><g transform="matrix(1,0,0,0.833333,-482,-57.3333)"><path d="M526,138.4C532.623,138.4 538,131.948 538,124C538,116.052 532.623,109.6 526,109.6C526,109.6 506,109.6 506,109.6C499.377,109.6 494,116.052 494,124C494,131.948 499.377,138.4 506,138.4C506,138.4 518,138.4 518,138.4C519.104,138.4 520,137.325 520,136C520,134.675 519.104,133.6 518,133.6L506,133.6C501.585,133.6 498,129.298 498,124C498,118.702 501.585,114.4 506,114.4L526,114.4C530.415,114.4 534,118.702 534,124C534,129.298 530.415,133.6 526,133.6C524.896,133.6 524,134.675 524,136C524,137.325 524.896,138.4 526,138.4Z"/></g><g transform="matrix(1,0,0,1,-486,-80)"><path d="M530.586,120.586L528.586,122.586C527.805,123.366 527.805,124.634 528.586,125.414C529.366,126.195 530.634,126.195 531.414,125.414L533.414,123.414C534.195,122.634 534.195,121.366 533.414,120.586C532.634,119.805 531.366,119.805 530.586,120.586Z"/></g><g transform="matrix(1,0,0,1,-492,-74)"><path d="M530.586,120.586L528.586,122.586C527.805,123.366 527.805,124.634 528.586,125.414C529.366,126.195 530.634,126.195 531.414,125.414L533.414,123.414C534.195,122.634 534.195,121.366 533.414,120.586C532.634,119.805 531.366,119.805 530.586,120.586Z"/></g><g transform="matrix(1,0,0,1,-482,-80)"><path d="M506,122L506,130C506,131.104 506.896,132 508,132C509.104,132 510,131.104 510,130L510,122C510,120.896 509.104,120 508,120C506.896,120 506,120.896 506,122Z"/></g><g transform="matrix(6.12323e-17,1,-1,6.12323e-17,152,-462)"><path d="M506,122L506,130C506,131.104 506.896,132 508,132C509.104,132 510,131.104 510,130L510,122C510,120.896 509.104,120 508,120C506.896,120 506,120.896 506,122Z"/></g></g></g></svg>