<?xml version="1.0" standalone="no"?>
<!DOCTYPE svg PUBLIC "-//W3C//DTD SVG 20010904//EN"
 "http://www.w3.org/TR/2001/REC-SVG-20010904/DTD/svg10.dtd">
<svg version="1.0" xmlns="http://www.w3.org/2000/svg"
 width="512.000000pt" height="512.000000pt" viewBox="0 0 512.000000 512.000000"
 preserveAspectRatio="xMidYMid meet">

<g transform="translate(0.000000,512.000000) scale(0.100000,-0.100000)"
fill="#000000" stroke="none">
<path d="M1125 4674 c-171 -41 -336 -174 -414 -334 -75 -154 -71 -45 -71
-1780 0 -1735 -4 -1626 71 -1780 56 -114 169 -228 279 -282 142 -70 103 -68
1125 -68 874 0 922 1 960 19 132 61 166 230 67 334 -62 66 5 61 -1002 67 -913
5 -915 5 -955 27 -50 27 -80 58 -100 105 -13 33 -15 210 -15 1578 0 1368 2
1545 15 1578 20 47 50 78 100 105 40 22 42 22 955 27 1007 6 940 1 1002 67 98
103 67 267 -64 334 -36 18 -71 19 -965 18 -774 -1 -938 -3 -988 -15z"/>
<path d="M3362 3621 c-85 -22 -162 -117 -162 -200 0 -92 7 -101 288 -383 l266
-268 -945 0 -946 0 -44 -23 c-24 -13 -57 -43 -74 -66 -27 -39 -30 -50 -30
-120 0 -68 3 -82 27 -117 15 -21 44 -50 65 -64 l37 -25 955 -3 955 -2 -266
-268 c-220 -221 -268 -274 -277 -307 -17 -63 -13 -107 15 -164 45 -90 139
-133 239 -110 48 11 66 28 513 473 255 253 470 473 478 488 21 41 28 108 14
158 -10 41 -55 89 -473 507 -254 255 -475 469 -492 478 -41 19 -102 26 -143
16z"/>
</g>
</svg>
