<svg xmlns="http://www.w3.org/2000/svg" xmlns:xlink="http://www.w3.org/1999/xlink" version="1.1" x="0px" y="0px" viewBox="0 0 100 80" style="enable-background:new 0 0 100 100;" xml:space="preserve"><path d="M22.9,53.3L43.7,67c0.2,0.1,0.3,0.2,0.5,0.3c1.3,0.5,2.8-0.1,3.3-1.3c0.5-1.3-0.1-2.8-1.3-3.3L23,53.1  C22.8,53.1,22.7,53.3,22.9,53.3z M46.6,64.9c0.1,0.8-0.5,1.4-1.3,1.5s-1.4-0.5-1.5-1.3s0.5-1.4,1.3-1.5  C45.9,63.6,46.6,64.1,46.6,64.9z"/><path d="M41.2,36.4c0.1,0.4,0.6,0.7,1,0.7C43.1,37,44.1,37,45,37c1.5,0,2.9,0.1,4.3,0.3c0.6,0.1,1.2-0.4,1.2-1v-6.9  c0-0.6-0.5-1-1-1c-3.2,0.1-6.4,0.7-9.3,1.6c-0.5,0.2-0.8,0.7-0.6,1.3L41.2,36.4z"/><path d="M52,37.7c2.1,0.5,4.2,1.3,6.2,2.2c0.5,0.3,1.2,0,1.4-0.6l2.7-8.2c0.2-0.5-0.1-1.1-0.6-1.3  c-3-0.9-6.1-1.5-9.3-1.6c-0.6,0-1,0.4-1,1v7.5C51.3,37.2,51.6,37.6,52,37.7z"/><path d="M81,46l-8.4,6.1c-0.4,0.3-0.5,0.8-0.3,1.3c0.9,1.6,1.6,3.2,2.2,4.9c0.2,0.5,0.7,0.8,1.2,0.6l9.8-3.2  c0.5-0.2,0.8-0.7,0.6-1.3c-1-2.9-2.3-5.7-3.8-8.2C82.1,45.8,81.4,45.6,81,46z"/><path d="M32.4,39.9c2.3-1.1,4.7-2,7.2-2.5c0.6-0.1,1-0.7,0.8-1.3l-1.5-4.7c-0.2-0.5-0.8-0.8-1.3-0.6  c-2.9,1.2-5.7,2.7-8.2,4.6c-0.4,0.3-0.5,0.9-0.2,1.4l2,2.8C31.4,40,32,40.1,32.4,39.9z"/><path d="M62.9,31.5l-2.8,8.6c-0.1,0.4,0,0.9,0.4,1.1c1.7,1,3.4,2.2,4.9,3.6c0.4,0.4,1.1,0.3,1.5-0.1l5.7-7.9  c0.3-0.4,0.2-1.1-0.2-1.4c-2.5-1.9-5.3-3.4-8.2-4.6C63.7,30.6,63.1,30.9,62.9,31.5z"/><path d="M67.4,46.7c1.3,1.4,2.5,2.8,3.5,4.4c0.3,0.5,0.9,0.6,1.4,0.3l8.3-6c0.4-0.3,0.5-0.9,0.2-1.4  c-1.8-2.5-3.9-4.8-6.2-6.8c-0.4-0.4-1.1-0.3-1.5,0.2l-5.9,8.1C67,45.8,67,46.3,67.4,46.7z"/><path d="M23.9,46.2c1.8-2,3.9-3.7,6.2-5.1c0.5-0.3,0.6-1,0.3-1.4l-1.8-2.4c-0.3-0.5-1-0.6-1.5-0.2  c-2.3,2-4.4,4.3-6.2,6.8c-0.3,0.4-0.2,1.1,0.2,1.4l1.4,1C23,46.6,23.5,46.6,23.9,46.2z"/><path d="M13.3,54.7l6,2c0.5,0.2,1-0.1,1.2-0.6c1.1-2.6,2.2-4.3,3.9-6.4c0.4-0.4,0.3-1.1-0.2-1.4l-5.9-4.2  c-0.5-0.3-1.1-0.2-1.4,0.3c-1.6,2.5-3.2,6.1-4.1,9C12.5,54,12.8,54.6,13.3,54.7z"/><path d="M75.3,60.8c0.4,1.7,0.7,3.5,0.9,5.3c0,0.5,0.5,0.9,1,0.9h10.2c0.6,0,1-0.5,1-1c-0.1-3.1-0.5-6-1.3-8.9  c-0.1-0.6-0.7-0.9-1.3-0.7L76,59.6C75.4,59.8,75.1,60.3,75.3,60.8z"/><path d="M15.3,67c0.1-3.2,0.7-6.3,1.7-9.2c0.2-0.5-0.1-1.1-0.6-1.3L16,56.4c-0.5-0.2-1.1,0.1-1.3,0.7  c-0.8,3.2-1.3,6.5-1.3,9.9H15.3z"/></svg>