<svg xmlns="http://www.w3.org/2000/svg" xmlns:xlink="http://www.w3.org/1999/xlink" version="1.1" x="0px" y="0px" viewBox="0 0 100 80" style="enable-background:new 0 0 100 100;" xml:space="preserve"><path d="M45.4,42.1l-3.1,24.1c0,0.2,0,0.4,0,0.5c0.1,1.4,1.3,2.4,2.7,2.4c1.4-0.1,2.4-1.3,2.4-2.7l-1.8-24.3  C45.7,42,45.5,42,45.4,42.1z M45.6,67.9c-0.7,0.4-1.5,0.2-1.9-0.5s-0.2-1.5,0.5-1.9s1.5-0.2,1.9,0.5C46.5,66.6,46.3,67.5,45.6,67.9z  "/><path d="M41.8,40.7c0.1,0.4,0.6,0.7,1,0.7c0.9-0.1,1.9-0.2,2.8-0.2c1.5,0,2,0.1,3.4,0.3c0.6,0.1,1.2-0.4,1.2-1v-12  c0-0.6-0.5-1-1-1c-3.2,0.1-7.2,0.8-10.1,1.7c-0.5,0.2-0.8,0.7-0.6,1.3L41.8,40.7z"/><path d="M51.7,39.4c2.1,0.5,4.2,1.3,6.2,2.2c0.5,0.3,1.2,0,1.4-0.6l2.7-8.2c0.2-0.5-0.1-1.1-0.6-1.3  c-3-0.9-6.1-1.5-9.3-1.6c-0.6,0-1,0.4-1,1v7.5C51,39,51.3,39.3,51.7,39.4z"/><path d="M80.7,47.7l-8.4,6.1c-0.4,0.3-0.5,0.8-0.3,1.3c0.9,1.6,1.6,3.2,2.2,4.9c0.2,0.5,0.7,0.8,1.2,0.6l9.8-3.2  c0.5-0.2,0.8-0.7,0.6-1.3c-1-2.9-2.3-5.7-3.8-8.2C81.8,47.5,81.1,47.3,80.7,47.7z"/><path d="M32.1,41.6c2.3-1.1,4.7-2,7.2-2.5c0.6-0.1,1-0.7,0.8-1.3l-1.5-4.7c-0.2-0.5-0.8-0.8-1.3-0.6  c-2.9,1.2-5.7,2.7-8.2,4.6c-0.4,0.3-0.5,0.9-0.2,1.4l2,2.8C31.1,41.7,31.7,41.8,32.1,41.6z"/><path d="M62.6,33.2l-2.8,8.6c-0.1,0.4,0,0.9,0.4,1.1c1.7,1,3.4,2.2,4.9,3.6c0.4,0.4,1.1,0.3,1.5-0.1l5.7-7.9  c0.3-0.4,0.2-1.1-0.2-1.4c-2.5-1.9-5.3-3.4-8.2-4.6C63.4,32.3,62.8,32.6,62.6,33.2z"/><path d="M67.1,48.4c1.3,1.4,2.5,2.8,3.5,4.4c0.3,0.5,0.9,0.6,1.4,0.3l8.3-6c0.4-0.3,0.5-0.9,0.2-1.4  c-1.8-2.5-3.9-4.8-6.2-6.8c-0.4-0.4-1.1-0.3-1.5,0.2l-5.8,8C66.7,47.5,66.7,48.1,67.1,48.4z"/><path d="M23.6,47.9c1.8-2,3.9-3.7,6.2-5.1c0.5-0.3,0.6-1,0.3-1.4L28.3,39c-0.3-0.5-1-0.6-1.5-0.2  c-2.3,2-4.4,4.3-6.2,6.8c-0.3,0.4-0.2,1.1,0.2,1.4l1.4,1C22.7,48.4,23.3,48.3,23.6,47.9z"/><path d="M15.9,57.4l0.5,0.2c0.5,0.2,1-0.1,1.2-0.6c1.1-2.6,2.5-5,4.2-7.1c0.4-0.4,0.3-1.1-0.2-1.4l-1.2-0.8  c-0.5-0.3-1.1-0.2-1.4,0.3c-1.6,2.5-2.9,5.3-3.8,8.2C15.1,56.7,15.4,57.2,15.9,57.4z"/><path d="M75,62.5c0.4,1.7,0.7,3.5,0.9,5.3c0,0.5,0.5,0.9,1,0.9h10.2c0.6,0,1-0.5,1-1c-0.1-3.1-0.5-6-1.3-8.9  c-0.1-0.6-0.7-0.9-1.3-0.7l-9.8,3.2C75.1,61.5,74.9,62,75,62.5z"/><path d="M15,68.7c0.1-3.2,0.7-6.3,1.7-9.2c0.2-0.5-0.1-1.1-0.6-1.3l-0.3-0.1c-0.5-0.2-1.1,0.1-1.3,0.7  c-0.8,3.2-1.3,6.5-1.3,9.9H15z"/></svg>