<?xml version="1.0" standalone="no"?>
<!DOCTYPE svg PUBLIC "-//W3C//DTD SVG 20010904//EN"
 "http://www.w3.org/TR/2001/REC-SVG-20010904/DTD/svg10.dtd">
<svg version="1.0" xmlns="http://www.w3.org/2000/svg"
 width="512.000000pt" height="512.000000pt" viewBox="0 0 512.000000 512.000000"
 preserveAspectRatio="xMidYMid meet">

<g transform="translate(0.000000,512.000000) scale(0.100000,-0.100000)"
fill="#000000" stroke="none">
<path d="M1185 4784 c-324 -58 -603 -263 -748 -549 -131 -261 -152 -545 -59
-815 163 -473 659 -769 1148 -685 113 20 198 47 299 98 110 54 157 88 248 176
96 93 162 181 214 286 150 302 149 640 -3 936 -58 112 -97 167 -185 257 -238
243 -583 355 -914 296z m263 -491 c14 -10 35 -32 46 -47 20 -26 21 -41 21
-246 0 -241 -1 -243 -69 -294 -39 -29 -133 -29 -172 0 -67 49 -69 57 -72 267
-2 106 -1 206 3 224 7 40 49 91 90 109 40 19 120 12 153 -13z m-25 -787 c103
-43 128 -177 48 -257 -112 -113 -296 -12 -267 146 18 94 128 150 219 111z"/>
<path d="M2683 4149 c-40 -5 -94 -12 -120 -17 -56 -9 -56 -9 -29 -132 53 -250
15 -543 -102 -775 -115 -230 -309 -422 -540 -539 -229 -115 -531 -154 -772
-100 -127 28 -123 30 -137 -51 -20 -115 -27 -348 -14 -475 60 -584 373 -1105
855 -1422 105 -70 318 -175 426 -211 342 -116 686 -136 1036 -62 148 31 273
74 422 145 401 193 707 498 902 902 323 670 229 1457 -245 2043 -360 445 -924
710 -1497 704 -62 -1 -145 -5 -185 -10z m285 -816 c14 -10 35 -32 46 -47 20
-27 21 -41 24 -456 l3 -429 429 -3 c415 -3 429 -4 456 -24 53 -39 69 -71 69
-134 0 -63 -16 -95 -69 -134 -27 -21 -38 -21 -566 -21 -528 0 -539 0 -566 21
-15 11 -37 33 -48 48 -20 27 -21 40 -24 539 -2 282 0 526 3 544 7 40 49 91 90
109 40 19 120 12 153 -13z"/>
</g>
</svg>
