<svg width="34" height="40" viewBox="0 0 34 40" fill="none" xmlns="http://www.w3.org/2000/svg">
<g id="Group">
<path id="Vector" d="M14.9612 0.101986C12.8271 0.430313 10.9197 1.44656 9.42658 3.03348C7.78494 4.77674 6.93286 6.7936 6.8156 9.20915C6.65143 12.5862 8.3087 15.8148 11.1698 17.6831C12.577 18.6056 13.9293 19.0746 15.571 19.2075C18.6119 19.442 21.2073 18.4883 23.3023 16.3542C24.9674 14.6656 25.8117 12.8208 26.0149 10.4677C26.2963 7.32518 25.1081 4.40151 22.7395 2.35337C21.2073 1.04006 19.8001 0.38341 17.8536 0.101986C16.9156 -0.0309086 15.8211 -0.0387268 14.9612 0.101986Z" fill="black"/>
<path id="Vector_2" d="M7.86304 19.38C4.32962 19.7552 1.87498 22.288 0.733654 26.7595C-0.0246255 29.7379 -0.220058 33.3182 0.264615 35.2803C0.663298 36.8516 1.96879 38.4464 3.47753 39.2124C4.15764 39.5564 5.1348 39.8378 5.95562 39.9316C6.44029 39.9942 10.1301 40.0098 17.1891 39.9942L27.7034 39.9707L28.3678 39.7831C30.8381 39.1108 32.5267 37.4536 33.1442 35.124C33.4647 33.9123 33.4257 31.0199 33.0504 28.7373C32.2296 23.656 30.1502 20.6073 26.8591 19.6536C26.1086 19.4347 24.7641 19.2705 24.3654 19.3487C23.9823 19.4191 23.4508 19.7005 22.2469 20.4744C20.9649 21.303 20.7851 21.3968 19.8235 21.7564C18.7135 22.1707 17.7988 22.3505 16.7279 22.3505C15.6334 22.3505 14.7892 22.1942 13.6791 21.8033C12.6316 21.4281 12.5847 21.4046 10.9431 20.3649C10.0832 19.8177 9.44214 19.466 9.19198 19.3956C8.75422 19.2862 8.75422 19.2862 7.86304 19.38Z" fill="black"/>
</g>
</svg>
