<?xml version="1.0" standalone="no"?>
<!DOCTYPE svg PUBLIC "-//W3C//DTD SVG 20010904//EN"
 "http://www.w3.org/TR/2001/REC-SVG-20010904/DTD/svg10.dtd">
<svg version="1.0" xmlns="http://www.w3.org/2000/svg"
 width="512.000000pt" height="512.000000pt" viewBox="0 0 512.000000 512.000000"
 preserveAspectRatio="xMidYMid meet">

<g transform="translate(0.000000,512.000000) scale(0.100000,-0.100000)"
fill="#000000" stroke="none">
<path d="M1717 4905 c-186 -35 -366 -129 -509 -264 -194 -183 -301 -414 -315
-677 -27 -508 316 -948 817 -1050 115 -23 342 -15 455 16 171 46 321 134 451
264 130 130 218 280 264 451 31 113 39 340 16 454 -37 180 -121 350 -242 488
-117 132 -323 257 -504 303 -112 29 -322 36 -433 15z"/>
<path d="M3553 3430 c-62 -13 -114 -43 -161 -93 -58 -64 -75 -108 -76 -197 0
-124 55 -214 162 -267 l57 -28 680 0 c670 0 681 0 726 21 66 31 114 78 146
142 23 47 28 70 28 132 -1 153 -92 261 -246 290 -63 12 -1255 12 -1316 0z"/>
<path d="M1250 2619 c-323 -42 -601 -180 -830 -409 -202 -202 -329 -435 -391
-718 -19 -84 -22 -139 -26 -419 -4 -277 -3 -333 12 -398 40 -179 162 -335 325
-413 47 -23 114 -46 150 -52 45 -7 481 -10 1450 -8 l1385 3 65 23 c194 70 338
223 390 414 21 77 21 95 17 427 -4 375 -8 404 -68 584 -73 221 -177 387 -348
558 -210 208 -425 326 -718 391 -94 21 -120 22 -723 24 -344 1 -654 -2 -690
-7z"/>
</g>
</svg>
