<?xml version="1.0" encoding="UTF-8" standalone="no"?> <svg xmlns="http://www.w3.org/2000/svg" viewBox="0 0 64 64"><title>1</title><g id="Layer_14" data-name="Layer 14"><path d="M56.79,16.09A26.89,26.89,0,0,0,9,25.46L5.77,19.27a2,2,0,1,0-3.54,1.87L8.45,32.93l0,.06a2,2,0,0,0,.25.34l.05.06a2,2,0,0,0,.37.29l.11.06a2,2,0,0,0,.34.14l.13,0a2,2,0,0,0,.47.06h0a2,2,0,0,0,.41,0l.12,0a2,2,0,0,0,.31-.12l.06,0,11.79-6.22A2,2,0,1,0,21.08,24l-8.6,4.54a22.89,22.89,0,1,1,9.08,21.9,2,2,0,1,0-2.37,3.22A26.89,26.89,0,0,0,56.79,16.09Z"/></g></svg>