<?xml version="1.0" encoding="iso-8859-1"?>
<!-- Uploaded to: SVG Repo, www.svgrepo.com, Generator: SVG Repo Mixer Tools -->
<svg fill="#000000" height="800px" width="800px" version="1.1" id="Layer_1" xmlns="http://www.w3.org/2000/svg" xmlns:xlink="http://www.w3.org/1999/xlink" 
	 viewBox="0 0 512 512" xml:space="preserve">
<g>
	<g>
		<path d="M233.739,89.044h-34.504c-6.147,0-11.13,4.983-11.13,11.13s4.983,11.13,11.13,11.13h34.504
			c6.147,0,11.13-4.983,11.13-11.13S239.886,89.044,233.739,89.044z"/>
	</g>
</g>
<g>
	<g>
		<path d="M289.391,66.783c-18.412,0-33.391,14.979-33.391,33.391c0,18.412,14.979,33.391,33.391,33.391
			s33.391-14.979,33.391-33.391C322.783,81.762,307.803,66.783,289.391,66.783z M289.391,111.304c-6.137,0-11.13-4.993-11.13-11.13
			c0-6.137,4.993-11.13,11.13-11.13s11.13,4.993,11.13,11.13C300.522,106.311,295.529,111.304,289.391,111.304z"/>
	</g>
</g>
<g>
	<g>
		<path d="M478.609,402.105V277.408C497.79,272.453,512,255.003,512,234.296c0-24.549-19.972-44.522-44.522-44.522h-33.391
			c-0.219,0-0.434,0.02-0.65,0.033c-0.216-0.011-0.43-0.033-0.649-0.033h-98.875v-11.687h22.261c6.146,0,11.13-4.983,11.13-11.13
			V88.209C367.304,39.57,327.733,0,279.096,0h-46.191c-48.639,0-88.209,39.57-88.209,88.209v78.748c0,6.147,4.983,11.13,11.13,11.13
			h22.261v11.687H79.212c-0.219,0-0.432,0.022-0.648,0.033c-0.216-0.012-0.431-0.033-0.65-0.033H44.522
			C19.972,189.774,0,209.746,0,234.296c0,20.707,14.21,38.157,33.391,43.113v124.696C14.21,407.06,0,424.51,0,445.217
			c0,6.147,4.983,11.13,11.13,11.13s11.13-4.983,11.13-11.13c0-12.275,9.986-22.261,22.261-22.261
			c12.275,0,22.261,9.986,22.261,22.261c0,6.147,4.983,11.13,11.13,11.13c6.147,0,11.13-4.983,11.13-11.13
			c0-20.707-14.21-38.157-33.391-43.113V278.817h11.13v44.151c0,67.408,54.841,122.249,122.249,122.249h11.316v11.13
			C200.348,487.034,225.313,512,256,512c30.687,0,55.652-24.966,55.652-55.652v-11.13h11.316
			c67.408,0,122.249-54.841,122.249-122.249v-44.151h11.13v123.287c-19.181,4.955-33.391,22.406-33.391,43.113
			c0,6.147,4.984,11.13,11.13,11.13c6.146,0,11.13-4.983,11.13-11.13c0-12.275,9.986-22.261,22.261-22.261
			s22.261,9.986,22.261,22.261c0,6.147,4.984,11.13,11.13,11.13s11.13-4.983,11.13-11.13C512,424.51,497.79,407.06,478.609,402.105z
			 M66.783,256.557H44.522c-12.275,0-22.261-9.986-22.261-22.261s9.986-22.261,22.261-22.261h22.261V256.557z M166.957,155.826
			V88.209c0-36.363,29.585-65.948,65.948-65.948h46.191c36.364,0,65.948,29.585,65.948,65.948v67.617h-22.261H189.217H166.957z
			 M311.652,178.087v11.687H200.348v-11.687H311.652z M289.391,456.348c0,18.412-14.979,33.391-33.391,33.391
			c-18.412,0-33.391-14.979-33.391-33.391v-11.13h66.783V456.348z M422.957,267.687v55.282c0,55.133-44.855,99.988-99.988,99.988
			h-22.447h-89.043h-22.447c-55.134,0-99.988-44.855-99.988-99.988v-55.282v-55.652h100.174h133.565h100.174V267.687z
			 M445.217,256.557v-44.522h22.261c12.275,0,22.261,9.986,22.261,22.261s-9.986,22.261-22.261,22.261H445.217z"/>
	</g>
</g>
<g>
	<g>
		<path d="M344.82,276.09c-0.133-0.712-0.356-1.414-0.635-2.081c-0.278-0.679-0.623-1.325-1.024-1.926
			c-0.4-0.612-0.867-1.18-1.38-1.692c-0.512-0.512-1.08-0.979-1.692-1.38c-0.601-0.401-1.247-0.746-1.926-1.024
			c-0.668-0.278-1.368-0.501-2.08-0.634c-1.436-0.289-2.905-0.289-4.341,0c-0.712,0.134-1.414,0.356-2.081,0.634
			c-0.679,0.278-1.323,0.623-1.924,1.024c-0.613,0.401-1.181,0.868-1.693,1.38c-0.512,0.512-0.979,1.08-1.38,1.692
			c-0.4,0.601-0.746,1.247-1.024,1.926c-0.278,0.668-0.501,1.369-0.633,2.081c-0.146,0.712-0.223,1.447-0.223,2.17
			c0,0.723,0.077,1.458,0.223,2.17c0.132,0.712,0.355,1.414,0.633,2.081c0.278,0.679,0.624,1.325,1.024,1.926
			c0.401,0.612,0.868,1.18,1.38,1.692c0.512,0.512,1.08,0.979,1.693,1.38c0.601,0.401,1.245,0.746,1.924,1.024
			c0.669,0.278,1.369,0.501,2.081,0.634c0.712,0.145,1.447,0.223,2.17,0.223c0.722,0,1.458-0.078,2.17-0.223
			c0.712-0.134,1.414-0.356,2.08-0.634c0.679-0.278,1.325-0.623,1.926-1.024c0.612-0.401,1.18-0.868,1.692-1.38
			c0.513-0.512,0.981-1.08,1.38-1.692c0.401-0.601,0.746-1.247,1.024-1.926c0.278-0.668,0.501-1.369,0.634-2.081
			c0.145-0.712,0.223-1.447,0.223-2.17C345.042,277.537,344.964,276.803,344.82,276.09z"/>
	</g>
</g>
<g>
	<g>
		<path d="M389.565,234.296H278.261c-6.146,0-11.13,4.983-11.13,11.13v32.835c0,6.147,4.984,11.13,11.13,11.13h22.261
			c6.146,0,11.13-4.983,11.13-11.13s-4.984-11.13-11.13-11.13h-11.13v-10.574h89.043v10.574h-11.13
			c-6.146,0-11.13,4.983-11.13,11.13s4.984,11.13,11.13,11.13h22.261c6.146,0,11.13-4.983,11.13-11.13v-32.835
			C400.696,239.279,395.711,234.296,389.565,234.296z"/>
	</g>
</g>
</svg>