<?xml version="1.0" standalone="no"?>
<!DOCTYPE svg PUBLIC "-//W3C//DTD SVG 20010904//EN"
 "http://www.w3.org/TR/2001/REC-SVG-20010904/DTD/svg10.dtd">
<svg version="1.0" xmlns="http://www.w3.org/2000/svg"
 width="512.000000pt" height="512.000000pt" viewBox="0 0 512.000000 512.000000"
 preserveAspectRatio="xMidYMid meet">

<g transform="translate(0.000000,512.000000) scale(0.100000,-0.100000)"
fill="white" stroke="none">
<path d="M1980 5099 c-112 -50 -120 -73 -176 -451 -25 -172 -47 -314 -47 -314
-1 -1 -31 -16 -67 -34 -36 -18 -108 -60 -160 -93 -52 -33 -100 -60 -106 -60
-6 0 -139 51 -295 114 -255 102 -290 114 -344 113 -69 0 -128 -26 -167 -73
-32 -37 -525 -889 -539 -931 -19 -54 -7 -145 27 -192 18 -25 125 -117 269
-230 l240 -187 1 -200 2 -200 -241 -188 c-132 -103 -252 -205 -268 -226 -31
-43 -44 -106 -35 -170 9 -61 510 -928 566 -978 47 -43 113 -64 173 -56 23 4
166 56 317 117 151 61 282 112 290 112 8 1 54 -24 101 -55 48 -30 120 -72 160
-92 41 -21 75 -38 76 -39 1 -1 22 -142 47 -314 56 -378 64 -401 176 -451 43
-20 63 -21 580 -21 l535 0 51 24 c60 28 108 83 122 140 6 22 29 171 52 331 23
159 42 291 43 291 1 1 35 18 76 39 40 20 112 62 160 92 47 31 93 56 101 55 8
0 139 -51 290 -112 151 -61 293 -113 316 -116 68 -10 146 19 189 69 33 37 417
689 516 875 44 82 52 153 24 220 -23 53 -36 65 -296 269 l-236 185 1 199 1
200 240 187 c144 113 251 205 269 230 34 48 46 138 27 193 -6 17 -126 231
-267 475 -180 312 -267 454 -294 478 -46 41 -108 60 -170 53 -25 -4 -169 -56
-320 -117 -151 -61 -282 -112 -290 -112 -8 -1 -53 24 -100 54 -47 31 -120 73
-162 94 -43 21 -78 42 -78 45 0 4 -20 145 -44 312 -54 370 -64 395 -176 446
-43 20 -63 21 -580 21 -517 0 -537 -1 -580 -21z m837 -1728 c107 -35 136 -49
218 -104 91 -62 171 -143 234 -238 189 -282 189 -656 0 -938 -117 -175 -268
-286 -479 -352 -65 -20 -96 -24 -230 -23 -122 0 -168 4 -215 18 -275 84 -476
262 -574 508 -190 476 79 1011 574 1142 92 24 101 25 245 21 119 -3 146 -7
227 -34z"/>
</g>
</svg>
