<?xml version="1.0" encoding="UTF-8"?>
<!DOCTYPE svg PUBLIC "-//W3C//DTD SVG 1.1//EN" "http://www.w3.org/Graphics/SVG/1.1/DTD/svg11.dtd">
<!-- Creator: CorelDRAW -->
<svg xmlns="http://www.w3.org/2000/svg" xml:space="preserve" width="512px" height="512px" version="1.1" style="shape-rendering:geometricPrecision; text-rendering:geometricPrecision; image-rendering:optimizeQuality; fill-rule:evenodd; clip-rule:evenodd"
viewBox="0 0 512 512"
 xmlns:xlink="http://www.w3.org/1999/xlink">
 <defs>
  <style type="text/css">
   <![CDATA[
    .fil0 {fill:black}
   ]]>
  </style>
 </defs>
 <g id="Layer_x0020_1">
  <metadata id="CorelCorpID_0Corel-Layer"/>
  <g id="_256500112">
   <g>
    <g>
     <path class="fil0" d="M231 390c-2,0 -4,-1 -5,-2l-102 -101c-2,-2 -2,-4 -2,-7 12,-52 35,-98 67,-139 25,-32 57,-59 93,-82 62,-39 117,-50 120,-51 2,0 4,0 6,2l94 94c2,2 2,4 2,6 -1,3 -11,58 -50,120 -23,36 -51,68 -83,93 -40,32 -86,55 -138,67 -1,0 -2,0 -2,0zm-94 -110l96 95c111,-27 175,-98 209,-153 32,-51 44,-98 47,-111l-88 -88c-13,3 -61,15 -112,48 -54,34 -125,98 -152,209z"/>
    </g>
    <g>
     <path class="fil0" d="M497 116c-1,0 -1,0 -1,0 -4,-1 -7,-4 -6,-8 3,-15 12,-65 6,-92 -13,-3 -40,-4 -90,6 0,0 -1,0 -1,0l-2 0c-4,0 -7,-3 -7,-7 0,-4 3,-7 7,-7l1 0c47,-9 80,-10 100,-5 2,1 4,3 5,5 8,29 -1,81 -5,102 -1,4 -4,6 -7,6z"/>
    </g>
    <g>
     <path class="fil0" d="M256 492c-2,0 -3,-1 -5,-2 -1,-1 -2,-4 -2,-6 0,-1 10,-72 -22,-95 -3,-3 -4,-7 -2,-10 3,-3 7,-4 10,-2 31,23 31,75 29,98 107,-36 99,-127 94,-155 -1,-3 2,-7 6,-8 3,-1 7,2 8,6 2,12 7,45 -5,80 -7,21 -19,39 -35,54 -19,17 -44,31 -74,40 -1,0 -1,0 -2,0z"/>
    </g>
    <g>
     <path class="fil0" d="M129 289c-2,0 -4,-1 -6,-3 -23,-33 -94,-23 -95,-23 -2,0 -5,-1 -6,-2 -2,-2 -2,-5 -2,-7 9,-30 23,-55 41,-74 15,-16 33,-28 53,-35 37,-12 71,-7 80,-5 4,1 7,5 6,8 -1,4 -5,7 -8,6 -9,-2 -40,-7 -73,5 -39,13 -67,43 -82,89 23,-2 76,-2 98,30 2,3 1,8 -2,10 -1,1 -3,1 -4,1z"/>
    </g>
    <g>
     <path class="fil0" d="M268 303c-16,0 -30,-6 -42,-17 0,0 0,0 0,0 -23,-24 -23,-60 0,-83 12,-11 26,-18 42,-18 16,0 30,7 42,18 23,23 23,59 0,83 0,0 0,0 0,0 -12,11 -27,17 -42,17zm-32 -27c18,17 46,17 64,0 17,-18 17,-46 0,-63 -18,-18 -46,-18 -64,0 -17,17 -17,45 0,63zm69 5l0 0 0 0z"/>
    </g>
    <g>
     <path class="fil0" d="M378 171c-1,0 -1,0 -1,0 -10,0 -19,-4 -25,-11 -7,-7 -11,-16 -11,-25 0,-10 4,-19 11,-26 6,-7 15,-11 25,-11 10,0 20,4 27,11 6,7 10,16 10,25 0,10 -4,19 -10,26 -7,7 -17,11 -26,11zm0 -59c-1,0 -1,0 -1,0 -6,0 -11,3 -15,7 0,0 0,0 0,0 -5,4 -7,10 -7,15 0,6 2,12 7,16 0,0 0,0 0,0 4,4 9,7 15,7 6,0 12,-2 17,-7 8,-8 8,-23 0,-31 -4,-4 -10,-7 -16,-7zm-21 2l0 0 0 0z"/>
    </g>
    <g>
     <path class="fil0" d="M205 408c-4,0 -7,-1 -9,-3l-88 -89c-2,-2 -4,-5 -4,-9 0,-6 3,-12 8,-18l12 -12c3,-3 7,-3 10,0 3,3 3,7 0,10l-12 12c-3,3 -4,6 -4,7 0,0 0,0 0,0l87 88c2,0 5,-1 8,-4 0,0 0,0 0,0l13 -12c3,-3 8,-2 10,0 3,3 3,8 0,10l-13 12c-6,5 -12,8 -18,8z"/>
    </g>
    <g>
     <path class="fil0" d="M59 409c-1,0 -1,0 -1,0 -6,0 -10,-2 -13,-5 -3,-3 -5,-8 -5,-14 0,-17 16,-45 25,-53 4,-5 11,-8 18,-8 9,0 19,4 26,11 14,14 15,33 3,45 -7,7 -36,24 -53,24zm25 -66c0,0 -1,0 -1,0 -2,0 -5,1 -8,4 0,0 0,0 0,0 -6,5 -21,30 -21,43 0,3 0,4 1,4 0,0 0,0 0,0 0,1 1,1 3,1 0,0 0,0 1,0 12,0 37,-14 43,-20 6,-6 5,-17 -3,-25 -4,-4 -10,-7 -15,-7zm-14 -1l0 0 0 0z"/>
    </g>
    <g>
     <path class="fil0" d="M122 472c-1,0 -1,0 -1,0 -6,0 -10,-2 -13,-5 -3,-3 -5,-7 -5,-13 -1,-18 17,-47 24,-54 11,-11 30,-10 45,3 0,0 0,0 0,0 13,15 14,34 3,45 -7,7 -36,24 -53,24zm24 -66c-3,0 -7,2 -9,4 -6,6 -20,31 -20,44 0,2 0,3 1,3 0,0 0,0 0,0 0,1 1,1 3,1 0,0 1,0 1,0 12,0 37,-14 43,-20 6,-6 5,-16 -3,-25 -5,-4 -11,-7 -16,-7z"/>
    </g>
    <g>
     <path class="fil0" d="M19 512c-6,0 -11,-2 -14,-5 -3,-3 -5,-8 -5,-14 0,-17 16,-45 25,-53 4,-5 11,-7 18,-8 9,0 19,4 26,11 13,13 15,33 4,45 0,0 0,0 0,0 -6,5 -18,13 -31,18 -9,4 -17,6 -23,6zm25 -66c0,0 -1,0 -1,0 -2,0 -5,1 -8,4 0,0 0,0 0,0 -6,5 -21,30 -21,43 0,3 0,4 1,4 0,0 0,0 0,0 1,1 6,3 22,-4 11,-5 22,-11 26,-15 5,-7 4,-17 -4,-25 -4,-4 -10,-7 -15,-7zm24 37l0 0 0 0zm-38 -38l0 0 0 0z"/>
    </g>
   </g>
  </g>
 </g>
</svg>
