<?xml version="1.0" standalone="no"?>
<!DOCTYPE svg PUBLIC "-//W3C//DTD SVG 20010904//EN"
 "http://www.w3.org/TR/2001/REC-SVG-20010904/DTD/svg10.dtd">
<svg version="1.0" xmlns="http://www.w3.org/2000/svg"
 width="512.000000pt" height="512.000000pt" viewBox="0 0 512.000000 512.000000"
 preserveAspectRatio="xMidYMid meet">

<g transform="translate(0.000000,512.000000) scale(0.100000,-0.100000)"
fill="#000000" stroke="none">
<path d="M2100 4785 c-504 -79 -906 -466 -1016 -977 -22 -101 -25 -359 -5
-458 96 -486 440 -852 920 -977 132 -34 355 -43 497 -19 513 87 920 490 1009
1000 29 170 17 396 -32 565 -75 262 -258 512 -493 671 -84 57 -248 134 -340
160 -175 49 -371 61 -540 35z"/>
<path d="M1397 2221 c-356 -157 -634 -460 -757 -829 -56 -169 -65 -236 -65
-487 0 -230 0 -230 27 -281 28 -53 87 -113 135 -137 80 -41 583 -115 1013
-149 209 -16 862 -16 1065 1 88 7 161 14 163 16 2 1 -4 28 -13 58 -14 48 -16
109 -13 434 3 375 3 378 27 433 40 89 106 175 176 227 36 26 63 53 61 58 -37
81 -57 144 -62 192 -11 110 27 232 105 331 20 26 41 53 45 60 5 9 -19 25 -86
57 -137 64 -134 64 -235 12 -109 -56 -263 -110 -397 -139 -147 -32 -445 -32
-593 0 -131 28 -253 72 -376 133 -54 27 -106 49 -115 48 -9 0 -56 -17 -105
-38z"/>
<path d="M3749 2101 c-123 -39 -238 -131 -289 -231 -42 -82 -10 -173 74 -205
69 -27 110 -10 185 75 52 58 71 72 113 85 90 26 177 -5 233 -83 l30 -44 3
-189 3 -189 -346 0 c-267 0 -353 -3 -378 -13 -47 -20 -95 -64 -120 -111 -21
-40 -22 -50 -22 -371 0 -326 0 -331 24 -378 25 -52 71 -92 128 -113 52 -18
945 -20 1007 -2 54 16 131 93 145 144 7 24 11 159 11 354 0 283 -2 319 -19
355 -19 43 -85 109 -120 120 -20 6 -21 12 -21 188 0 205 -12 275 -62 368 -58
110 -155 192 -278 236 -83 29 -217 31 -301 4z"/>
</g>
</svg>
