<?xml version="1.0" encoding="iso-8859-1"?>
<!-- Uploaded to: SVG Repo, www.svgrepo.com, Generator: SVG Repo Mixer Tools -->
<svg height="800px" width="800px" version="1.1" id="Capa_1" xmlns="http://www.w3.org/2000/svg" xmlns:xlink="http://www.w3.org/1999/xlink" 
	 viewBox="0 0 320 320" xml:space="preserve">
<g id="XMLID_494_">
	<path id="XMLID_495_" style="fill:#006DF0;" d="M290,160c0-10.177-1.172-20.079-3.383-29.583l27.947-22.704l-32-55.426
		l-33.673,12.864c-14.386-13.487-31.839-23.738-51.202-29.596L192,0h-64l-5.689,35.556c-19.363,5.857-36.816,16.108-51.202,29.596
		L37.436,52.287l-32,55.426l27.947,22.704C31.172,139.921,30,149.823,30,160s1.172,20.079,3.383,29.582L5.436,212.287l32,55.426
		l33.672-12.865c14.387,13.488,31.84,23.739,51.203,29.596L128,320h64l5.689-35.557c19.363-5.856,36.816-16.107,51.203-29.596
		l33.672,12.865l32-55.426l-27.947-22.705C288.828,180.079,290,170.177,290,160z"/>
	<path id="XMLID_496_" style="fill:#0052B4;" d="M160,0h-32l-5.689,35.556c-19.363,5.857-36.816,16.108-51.202,29.596L37.436,52.287
		l-32,55.426l27.947,22.704C31.172,139.921,30,149.823,30,160s1.172,20.079,3.383,29.582L5.436,212.287l32,55.426l33.672-12.865
		c14.387,13.488,31.84,23.739,51.203,29.596L128,320h32V0z"/>
	<circle id="XMLID_497_" style="fill:#FFFFFF;" cx="160" cy="160" r="95"/>
	<polygon id="XMLID_498_" style="fill:#FFDA44;" points="160,180 110,210 160,90 210,210 	"/>
	<polygon id="XMLID_500_" style="fill:#FF9811;" points="160,180 110,210 160,90 	"/>
</g>
</svg>