<?xml version="1.0" encoding="iso-8859-1"?>
<!-- Uploaded to: SVG Repo, www.svgrepo.com, Generator: SVG Repo Mixer Tools -->
<svg version="1.1" id="Layer_1" xmlns="http://www.w3.org/2000/svg" xmlns:xlink="http://www.w3.org/1999/xlink" 
	 viewBox="0 0 511.997 511.997" xml:space="preserve">
<path style="fill:#EEBF00;" d="M96.804,102.516c19.716,20.843,12.229,59.939,12.229,59.939s-39.452,5.306-59.169-15.536
	S37.635,86.98,37.635,86.98S77.088,81.674,96.804,102.516z"/>
<path style="fill:#DDB200;" d="M110.076,150.014c0,0-39.887,5.364-59.819-15.707C40.12,123.592,37.102,108.11,36.578,95.475
	c-0.99,12.731-0.632,36.527,13.287,51.241c19.716,20.843,59.169,15.536,59.169,15.536s1.103-5.79,1.345-14.089
	C110.203,149.35,110.076,150.014,110.076,150.014z"/>
<path style="fill:#EEBF00;" d="M163.217,133.203c28.63,1.855,49.751,35.598,49.751,35.598s-25.298,30.736-53.927,28.882
	c-28.63-1.855-49.751-35.598-49.751-35.598S134.588,131.348,163.217,133.203z"/>
<path style="fill:#DDB200;" d="M159.041,181.596c-18.954-1.228-34.609-16.426-43.031-26.563c-4.257,4.06-6.72,7.052-6.72,7.052
	s21.12,33.743,49.751,35.598c28.63,1.855,53.927-28.882,53.927-28.882s-2.42-3.86-6.72-9.034
	C196.859,168.721,178.739,182.872,159.041,181.596z"/>
<path style="fill:#EEBF00;" d="M73.26,188.285c21.978,18.441,19.031,58.139,19.031,58.139s-38.583,9.801-60.561-8.639
	c-21.978-18.44-19.031-58.139-19.031-58.139S51.28,169.844,73.26,188.285z"/>
<path style="fill:#DDB200;" d="M91.846,231.146c-4.167,0.979-40.467,8.847-61.686-8.956c-10.167-8.531-15.132-21.498-17.518-33.163
	c0.479,12.764,3.575,36.362,19.086,49.376c21.978,18.441,60.561,8.639,60.561,8.639S92.787,240.33,91.846,231.146z"/>
<path style="fill:#EEBF00;" d="M144.711,214.588c28.688,0.306,51.6,32.859,51.6,32.859s-23.601,32.058-52.289,31.751
	c-28.688-0.306-51.6-32.859-51.6-32.859S116.022,214.282,144.711,214.588z"/>
<path style="fill:#DDB200;" d="M144.022,267.163c-20.725-0.221-38.43-17.267-46.665-26.715c-3.157,3.482-4.936,5.892-4.936,5.892
	s22.912,32.553,51.6,32.859s52.289-31.751,52.289-31.751s-1.771-2.512-4.935-6.143C183,250.544,164.857,267.385,144.022,267.163z"/>
<path style="fill:#EEBF00;" d="M63.465,267.236c28.435,3.818,47.186,38.934,47.186,38.934s-27.35,28.925-55.785,25.106
	C26.431,327.457,7.68,292.342,7.68,292.342S35.031,263.417,63.465,267.236z"/>
<path style="fill:#DDB200;" d="M54.866,313.923c-18.031-2.421-32.158-17.42-40.089-28.076c-4.468,3.718-7.097,6.496-7.097,6.496
	s18.751,35.115,47.185,38.934c28.435,3.818,55.785-25.106,55.785-25.106s-2.52-4.708-7.097-10.857
	C93.599,303.597,74.493,316.559,54.866,313.923z"/>
<path style="fill:#EEBF00;" d="M179.913,90.611c-9.047,29.304-40.974,31.714-40.974,31.714s-27.476-24.044-18.43-53.349
	s49.381-42.873,49.381-42.873S188.96,61.306,179.913,90.611z"/>
<path style="fill:#DDB200;" d="M186.509,74.227c-9.047,29.304-49.381,42.873-49.381,42.873s-14.716-19.478-17.927-41.661
	c-4.617,27.869,17.927,41.661,17.927,41.661s33.737,2.817,42.785-26.489c2.194-7.107,8.932-14.847,7.904-21.95
	C187.506,70.528,187.076,72.386,186.509,74.227z"/>
<path style="fill:#EEBF00;" d="M414.561,102.516c-19.716,20.843-12.229,59.939-12.229,59.939s39.452,5.306,59.169-15.536
	c19.717-20.843,12.229-59.939,12.229-59.939S434.277,81.674,414.561,102.516z"/>
<path style="fill:#DDB200;" d="M401.289,150.014c0,0,39.887,5.364,59.819-15.707c10.137-10.715,13.155-26.197,13.679-38.833
	c0.99,12.731,0.632,36.527-13.287,51.241c-19.716,20.843-59.169,15.536-59.169,15.536s-1.103-5.79-1.345-14.089
	C401.163,149.35,401.289,150.014,401.289,150.014z"/>
<path style="fill:#EEBF00;" d="M348.147,133.203c-28.63,1.855-49.751,35.598-49.751,35.598s25.298,30.736,53.927,28.882
	s49.751-35.598,49.751-35.598S376.777,131.348,348.147,133.203z"/>
<path style="fill:#DDB200;" d="M352.325,181.596c18.954-1.228,34.609-16.426,43.031-26.563c4.257,4.06,6.72,7.052,6.72,7.052
	s-21.12,33.743-49.751,35.598c-28.63,1.855-53.927-28.882-53.927-28.882s2.42-3.86,6.72-9.034
	C314.505,168.721,332.626,182.872,352.325,181.596z"/>
<path style="fill:#EEBF00;" d="M438.106,188.285c-21.978,18.441-19.031,58.139-19.031,58.139s38.583,9.801,60.561-8.639
	c21.978-18.441,19.031-58.139,19.031-58.139S460.085,169.844,438.106,188.285z"/>
<path style="fill:#DDB200;" d="M419.519,231.146c4.167,0.979,40.467,8.847,61.686-8.956c10.167-8.531,15.132-21.498,17.518-33.163
	c-0.479,12.764-3.576,36.362-19.086,49.376c-21.978,18.441-60.561,8.639-60.561,8.639S418.579,240.33,419.519,231.146z"/>
<path style="fill:#EEBF00;" d="M366.655,214.588c-28.688,0.306-51.6,32.859-51.6,32.859s23.601,32.058,52.289,31.751
	c28.688-0.306,51.6-32.859,51.6-32.859S395.343,214.282,366.655,214.588z"/>
<path style="fill:#DDB200;" d="M367.343,267.163c20.725-0.221,38.43-17.267,46.665-26.715c3.157,3.482,4.936,5.892,4.936,5.892
	s-22.912,32.553-51.6,32.859s-52.289-31.751-52.289-31.751s1.771-2.512,4.935-6.143
	C328.365,250.544,346.508,267.385,367.343,267.163z"/>
<path style="fill:#EEBF00;" d="M447.9,267.236c-28.435,3.818-47.186,38.934-47.186,38.934s27.35,28.925,55.785,25.106
	c28.435-3.818,47.186-38.934,47.186-38.934S476.335,263.417,447.9,267.236z"/>
<path style="fill:#DDB200;" d="M456.499,313.923c18.031-2.421,32.158-17.42,40.089-28.076c4.468,3.718,7.097,6.496,7.097,6.496
	s-18.751,35.115-47.185,38.934c-28.435,3.818-55.785-25.106-55.785-25.106s2.52-4.708,7.097-10.857
	C417.766,303.597,436.872,316.559,456.499,313.923z"/>
<path style="fill:#EEBF00;" d="M330.815,86.376c9.047,29.304,39.823,35.95,39.823,35.95s29.265-24.044,20.218-53.349
	c-9.047-29.304-49.381-42.873-49.381-42.873S321.768,57.07,330.815,86.376z"/>
<path style="fill:#DDB200;" d="M324.856,74.227c9.047,29.304,49.381,42.873,49.381,42.873s14.716-19.478,17.927-41.661
	c4.617,27.869-17.12,49.28-17.12,49.28s-35.182-9.037-44.229-38.342c-2.194-7.107-8.294-10.611-7.266-17.714
	C323.858,70.528,324.289,72.386,324.856,74.227z"/>
<g>
	<polygon style="fill:#77757E;" points="401.346,491.674 361.036,452.696 361.036,422.511 427.612,422.511 427.612,487.659 	"/>
	<polygon style="fill:#77757E;" points="149.6,452.696 109.29,491.674 73.334,491.674 73.334,439.938 152.437,439.938 	"/>
</g>
<rect x="109.291" y="344.12" style="fill:#DFDFE2;" width="292.051" height="108.586"/>
<g>
	<polygon style="fill:#ACAAB1;" points="109.29,491.674 13.208,491.674 40.992,441.212 13.208,390.749 109.29,390.749 	"/>
	<polygon style="fill:#ACAAB1;" points="401.346,390.749 497.427,390.749 469.643,441.212 497.427,491.674 401.346,491.674 	"/>
	<rect x="164.516" y="381.104" style="fill:#ACAAB1;" width="174.944" height="32.846"/>
</g>
<path d="M451.888,334.182c2.07,0,4.163-0.132,6.265-0.414c31.967-4.293,52.098-41.353,52.939-42.928
	c1.556-2.915,1.074-6.497-1.195-8.897c-1.227-1.298-30.407-31.736-62.388-27.441c-9.015,1.211-17.088,5.029-24.052,9.92
	c1.05-4.541,1.904-9.14,2.558-13.788c4.831,0.806,11.289,1.57,18.439,1.57c13.104,0,28.519-2.565,40.44-12.128
	c25.159-20.182,23.265-62.315,23.172-64.098c-0.172-3.299-2.434-6.119-5.617-7.001c-1.721-0.477-42.439-11.467-67.598,8.713
	c-4.715,3.783-8.481,8.338-11.486,13.253c-2.03-8.679-4.772-17.144-8.204-25.321c14.6-0.159,37.704-3.126,52.289-18.544
	c22.166-23.432,14.53-64.909,14.193-66.663c-0.621-3.245-3.247-5.728-6.521-6.169c-1.769-0.236-43.607-5.558-65.772,17.871
	c-10.022,10.593-13.951,24.876-15.218,37.508c-2.954-3.811-6.095-7.504-9.412-11.076c6.972-11.116,20.246-36.634,12.914-60.384
	c-9.514-30.818-49.391-44.552-51.083-45.121c-3.133-1.055-6.585,0.012-8.577,2.648c-1.077,1.426-26.272,35.247-16.758,66.065v0.001
	c6.083,19.702,24.565,32.411,37.555,39.172c-3.431-0.533-6.949-0.747-10.537-0.512h-0.001
	c-32.187,2.086-54.816,37.674-55.764,39.188c-1.752,2.8-1.518,6.407,0.58,8.958c1.1,1.336,26.506,31.762,57.362,31.762
	c0.991,0,1.992-0.031,2.995-0.096c21.196-1.374,38.245-17.275,47.689-28.407c6.607,15.827,10.369,32.836,11.037,50.393
	c-10.554-9.6-26.492-20.43-44.713-20.43c-0.163,0-0.327,0.001-0.491,0.002c-32.251,0.344-56.773,34.659-57.8,36.121
	c-1.901,2.701-1.863,6.315,0.095,8.975c1.054,1.431,26.05,34.881,58.067,34.881c0.163,0,0.327-0.001,0.491-0.002
	c15.685-0.167,29.531-8.371,39.746-16.921c-2.808,10.766-6.842,21.143-12.036,30.958c-0.513,0.882-0.832,1.467-0.921,1.634
	c-0.058,0.109-0.093,0.223-0.145,0.334c-6.568,11.954-14.864,23.051-24.777,32.964c-1.524,1.524-2.555,2.705-3.467,3.746
	c-0.645,0.737-1.178,1.343-1.787,1.96H148.286c-2.068-1.848-4.111-3.743-6.074-5.706c-9.652-9.652-17.773-20.425-24.257-32.021
	c-0.139-0.435-0.308-0.863-0.528-1.277c-0.138-0.259-0.807-1.488-1.953-3.36c-4.741-9.258-8.459-18.998-11.101-29.083
	c10.198,8.497,23.974,16.606,39.568,16.772c0.166,0.001,0.325,0.002,0.49,0.002c32.016,0,57.014-33.449,58.067-34.881
	c1.958-2.66,1.997-6.274,0.096-8.975c-1.028-1.462-25.548-35.776-57.8-36.121c-0.166-0.001-0.325-0.002-0.49-0.002
	c-18.135,0-34.013,10.732-44.568,20.299c0.683-17.536,4.453-34.524,11.062-50.331c9.432,11.135,26.506,27.099,47.747,28.476
	c1.004,0.065,2.001,0.096,2.995,0.096c30.852,0,56.26-30.426,57.36-31.762c2.099-2.55,2.332-6.158,0.58-8.958
	c-0.947-1.514-23.578-37.102-55.765-39.188c-3.633-0.236-7.195-0.013-10.667,0.535c12.993-6.756,31.509-19.47,37.598-39.194
	c9.515-30.819-15.682-64.642-16.759-66.066c-1.991-2.633-5.443-3.7-8.577-2.648c-1.693,0.569-41.568,14.303-51.083,45.121
	c-7.332,23.75,5.943,49.269,12.915,60.384c-3.359,3.616-6.539,7.36-9.525,11.223c-1.251-12.669-5.171-27.022-15.232-37.656
	C80.222,68.684,38.384,74.007,36.615,74.243c-3.273,0.441-5.899,2.924-6.521,6.169c-0.336,1.754-7.971,43.232,14.193,66.663
	c14.63,15.464,37.824,18.404,52.416,18.545c-3.276,7.805-5.924,15.872-7.923,24.137c-2.796-4.592-6.268-8.861-10.581-12.481
	c0,0,0,0,0-0.001c-24.708-20.728-65.657-10.638-67.389-10.199c-3.201,0.814-5.525,3.583-5.769,6.877
	c-0.132,1.781-2.955,43.86,21.753,64.591c12.388,10.394,28.853,13.039,42.416,13.039c6.443,0,12.215-0.598,16.598-1.246
	c0.654,4.709,1.512,9.368,2.572,13.968c-6.928-4.837-14.944-8.606-23.89-9.808C32.531,250.216,3.328,280.64,2.1,281.939
	c-2.27,2.401-2.75,5.982-1.194,8.897c0.841,1.575,20.973,38.635,52.939,42.928c2.103,0.282,4.193,0.414,6.266,0.414
	c20.288,0,38.734-12.667,48.61-20.931c5.141,8.176,11.056,15.934,17.703,23.182h-17.132c-4.242,0-7.682,3.438-7.682,7.682v38.952
	H12.566c-2.716,0-5.231,1.434-6.613,3.774c-1.383,2.338-1.427,5.233-0.116,7.613l25.743,46.758L5.837,487.97
	c-1.31,2.379-1.266,5.274,0.116,7.613c1.383,2.339,3.897,3.774,6.613,3.774h96.081c0.107,0,0.211-0.011,0.316-0.016
	c0.11,0.005,0.218,0.016,0.328,0.016c1.922,0,3.847-0.717,5.338-2.159l38.077-36.818h205.224l38.077,36.818
	c0.066,0.064,0.137,0.119,0.205,0.179c0.103,0.093,0.206,0.187,0.314,0.276c0.094,0.077,0.193,0.145,0.29,0.217
	c0.102,0.075,0.204,0.152,0.309,0.221c0.108,0.071,0.217,0.134,0.328,0.199c0.103,0.06,0.205,0.123,0.311,0.179
	c0.115,0.06,0.232,0.114,0.349,0.168c0.108,0.05,0.213,0.101,0.324,0.146c0.119,0.048,0.239,0.089,0.359,0.131
	c0.114,0.04,0.226,0.082,0.343,0.118c0.123,0.037,0.248,0.065,0.372,0.095c0.116,0.029,0.23,0.06,0.349,0.083
	c0.143,0.029,0.288,0.046,0.432,0.066c0.101,0.014,0.201,0.033,0.303,0.043c0.25,0.025,0.5,0.038,0.751,0.038l0,0h0.001h96.081
	c2.716,0,5.231-1.434,6.613-3.774c1.383-2.338,1.427-5.233,0.116-7.613l-25.743-46.757l25.743-46.758
	c1.31-2.379,1.266-5.274-0.116-7.613c-1.383-2.339-3.897-3.774-6.613-3.774h-88.4v-38.952c0-4.243-3.438-7.682-7.682-7.682h-15.907
	c6.667-7.271,12.597-15.053,17.749-23.258C413.04,321.437,431.535,334.182,451.888,334.182z M427.611,227.816
	c1.306-11.868,5.245-28.831,16.852-38.142h-0.001c14.351-11.511,37.578-9.043,48.222-7.112c-0.422,10.818-3.056,34.022-17.404,45.53
	c-14.182,11.379-37.034,9.101-47.839,7.181c0.111-2.456,0.172-4.92,0.172-7.395C427.612,227.857,427.611,227.837,427.611,227.816z
	 M335.894,77.224L335.894,77.224c-5.425-17.575,5.409-38.268,11.121-47.457c9.904,4.372,30.513,15.355,35.939,32.929
	c5.435,17.604-5.443,38.335-11.148,47.5C360.262,105.128,340.964,93.646,335.894,77.224z M352.411,184.897
	c-18.338,1.187-35.961-14.161-43.57-21.855c6.555-8.615,22.031-26.104,40.384-27.293c18.338-1.203,35.961,14.16,43.57,21.854
	C386.24,166.217,370.765,183.707,352.411,184.897z M409.44,150.153c-1.258-12.545-0.742-34.994,11.07-47.478
	c12.642-13.363,35.99-14.094,46.797-13.636c1.059,10.774,1.621,34.119-11.018,47.481
	C443.627,149.904,420.235,150.617,409.44,150.153z M449.554,269.728c18.243-2.443,36.85,11.655,44.968,18.807
	c-5.948,9.045-20.184,27.557-38.413,30.005c-18.249,2.449-36.85-11.655-44.968-18.807
	C417.088,290.689,431.325,272.175,449.554,269.728z M367.617,266.397c-0.111,0.002-0.219,0.002-0.33,0.002
	c-18.291,0-34.911-16.184-42.029-24.215c8.148-9.623,24.648-24.852,41.835-25.035c0.111-0.002,0.219-0.002,0.33-0.002
	c18.291,0,34.911,16.184,42.029,24.215C401.304,250.985,384.803,266.213,367.617,266.397z M128.906,62.696
	c5.426-17.575,26.04-28.561,35.938-32.929c5.716,9.194,16.548,29.883,11.122,47.457c-5.426,17.576-26.039,28.561-35.937,32.929
	C134.312,100.96,123.48,80.27,128.906,62.696z M162.722,135.747c18.356,1.189,33.834,18.682,40.384,27.293
	c-7.612,7.698-25.211,23.039-43.569,21.855c-18.356-1.189-33.834-18.682-40.385-27.293
	C126.764,149.905,144.385,134.547,162.722,135.747z M36.666,226.779c-14.115-11.843-16.219-35.158-16.397-45.953
	c12.449-2.002,34.887-2.823,48.054,8.221c11.165,9.367,14.813,25.91,15.94,37.76c-0.002,0.357-0.013,0.713-0.013,1.07
	c0,2.4,0.06,4.789,0.164,7.17C71.906,237.014,49.725,237.736,36.666,226.779z M55.445,136.519
	c-12.641-13.363-12.077-36.714-11.018-47.481c10.816-0.46,34.157,0.276,46.797,13.636c12.661,13.383,12.076,36.787,11.013,47.531
	C89.64,150.763,67.255,149.004,55.445,136.519z M55.888,318.541c-18.261-2.453-32.514-21.023-38.441-30.047
	c9.446-8.352,27.969-21.047,44.996-18.765c18.231,2.449,32.469,20.964,38.414,30.005C92.734,306.89,74.115,320.997,55.888,318.541z
	 M144.298,217.147c0.11,0,0.22,0,0.33,0.002c18.394,0.196,34.793,16.829,41.801,25.071c-7.142,8.049-23.733,24.177-41.994,24.177
	c-0.11,0-0.22,0-0.33-0.002c-18.394-0.196-34.793-16.829-41.8-25.072C109.446,233.275,126.037,217.147,144.298,217.147z
	 M100.966,483.993H25.564l21.514-39.075c1.27-2.307,1.27-5.103,0-7.409l-21.514-39.076h75.402V483.993z M409.027,452.696v-54.265
	h75.402l-21.514,39.076c-1.269,2.307-1.269,5.103,0,7.409l21.514,39.075h-75.402V452.696z M116.329,474.183v-13.805h14.276
	L116.329,474.183z M393.664,473.561l-13.633-13.184h13.633V473.561z M393.664,351.797v38.953v54.265H116.972v-93.219h28.361
	c0.008,0,0.015,0.001,0.024,0.001c0.006,0,0.012-0.001,0.019-0.001h248.288V351.797z"/>
<path d="M164.521,421.631h174.947c4.243,0,7.682-3.438,7.682-7.682v-32.847c0-4.243-3.438-7.682-7.682-7.682H164.521
	c-4.242,0-7.682,3.438-7.682,7.682v32.847C156.84,418.193,160.279,421.631,164.521,421.631z M172.203,388.784h159.584v17.484
	H172.203V388.784z"/>
</svg>