<?xml version="1.0" encoding="iso-8859-1"?>
<!-- Uploaded to: SVG Repo, www.svgrepo.com, Generator: SVG Repo Mixer Tools -->
<svg version="1.1" id="Layer_1" xmlns="http://www.w3.org/2000/svg" xmlns:xlink="http://www.w3.org/1999/xlink" 
	 viewBox="0 0 512 512" xml:space="preserve">
<polygon style="fill:#77757E;" points="291.269,334.03 264.528,287.758 250.455,263.406 233.498,234.064 212.393,246.26 
	236.38,287.765 250.451,312.114 263.116,334.03 "/>
<polygon style="opacity:0.61;fill:#3E3B43;enable-background:new    ;" points="249.074,309.732 254.254,318.695 272.917,302.273 
	263.201,285.463 "/>
<g>
	<polygon style="fill:#77757E;" points="410.406,490.055 367.784,448.841 423.03,421.148 432.872,470.64 	"/>
	<polygon style="fill:#77757E;" points="144.216,448.841 101.594,490.055 77.654,439.579 147.706,431.014 	"/>
</g>
<rect x="101.597" y="334.026" style="fill:#DFDFE2;" width="308.817" height="114.807"/>
<g>
	<polygon style="fill:#ACAAB1;" points="101.594,489.95 0,489.95 29.377,436.592 0,383.234 101.594,383.234 	"/>
	<polygon style="fill:#ACAAB1;" points="410.406,383.34 512,383.34 482.623,436.697 512,490.055 410.406,490.055 	"/>
</g>
<rect x="280.406" y="185.655" transform="matrix(0.8658 0.5004 -0.5004 0.8658 160.8939 -141.9864)" style="fill:#DFDFE2;" width="129.497" height="86.616"/>
<g>
	<polygon style="fill:#77757E;" points="237.789,334.03 288.512,246.26 267.407,234.064 209.636,334.03 	"/>
	
		<rect x="371.829" y="210.159" transform="matrix(0.8658 0.5004 -0.5004 0.8658 168.7597 -165.7609)" style="fill:#77757E;" width="43.162" height="43.162"/>
	
		<rect x="312.852" y="225.937" transform="matrix(0.8658 0.5004 -0.5004 0.8658 168.7396 -134.1317)" style="fill:#77757E;" width="43.162" height="43.162"/>
	
		<rect x="297.07" y="166.969" transform="matrix(0.8658 0.5004 -0.5004 0.8658 137.1142 -134.148)" style="fill:#77757E;" width="43.162" height="43.162"/>
</g>
<rect x="91.018" y="185.644" transform="matrix(-0.8658 0.5004 -0.5004 -0.8658 405.1956 349.2334)" style="fill:#DFDFE2;" width="129.497" height="86.616"/>
<g>
	<polygon style="opacity:0.21;fill:#77757E;enable-background:new    ;" points="132.135,274.832 96.514,213.193 78.015,223.884 
		121.356,298.882 233.477,234.086 225.758,220.728 	"/>
	<polygon style="opacity:0.21;fill:#77757E;enable-background:new    ;" points="368.75,274.832 404.371,213.193 422.871,223.884 
		379.528,298.882 267.407,234.086 275.127,220.728 	"/>
	
		<rect x="85.942" y="210.162" transform="matrix(-0.8658 0.5004 -0.5004 -0.8658 316.5798 378.5802)" style="fill:#77757E;" width="43.162" height="43.162"/>
	
		<rect x="144.919" y="225.927" transform="matrix(-0.8658 0.5004 -0.5004 -0.8658 434.5078 378.4835)" style="fill:#77757E;" width="43.162" height="43.162"/>
	
		<rect x="160.695" y="166.95" transform="matrix(-0.8658 0.5004 -0.5004 -0.8658 434.4305 260.5503)" style="fill:#77757E;" width="43.162" height="43.162"/>
</g>
<path style="fill:#EEBF00;" d="M170.005,83.928c-15.517,8.197-37.327-2.632-37.327-2.632s3.35-24.119,18.867-32.315
	s37.328,2.632,37.328,2.632S185.522,75.732,170.005,83.928z"/>
<path style="opacity:0.27;fill:#664400;enable-background:new    ;" d="M170.005,76.717c-13.136,6.938-30.776,0.245-35.883-1.975
	c-1.069,3.87-1.444,6.552-1.444,6.552s21.809,10.829,37.327,2.632s18.867-32.315,18.867-32.315s-0.518-0.256-1.444-0.659
	C185.288,58.707,180.356,71.25,170.005,76.717z"/>
<path style="fill:#EEBF00;" d="M124.847,54.258c-0.487,17.543-20.636,31.215-20.636,31.215S84.85,70.703,85.337,53.16
	s20.636-31.215,20.636-31.215S125.333,36.715,124.847,54.258z"/>
<path style="opacity:0.27;fill:#664400;enable-background:new    ;" d="M104.21,74.291c0,0-15.041-11.483-18.269-26.222
	c-0.345,1.538-0.559,3.115-0.604,4.726c-0.487,17.543,18.872,32.312,18.872,32.312s20.15-13.673,20.636-31.215
	c0.057-2.076-0.17-4.111-0.604-6.09C120.825,63.012,104.21,74.291,104.21,74.291z"/>
<path style="fill:#EEBF00;" d="M139.703,96.256c11.581,13.185,6.121,36.916,6.121,36.916s-24.236,2.352-35.817-10.833
	s-6.121-36.916-6.121-36.916S128.122,83.071,139.703,96.256z"/>
<path style="opacity:0.27;fill:#664400;enable-background:new    ;" d="M145.825,123.259c0,0-24.236,2.352-35.817-10.833
	c-4.761-5.421-6.639-12.622-7.204-19.227c-0.633,8.099-0.166,20.751,7.204,29.142c11.581,13.185,35.817,10.833,35.817,10.833
	s1.89-8.23,1.082-17.689C146.545,120.112,145.825,123.259,145.825,123.259z"/>
<path style="fill:#EEBF00;" d="M77.415,81.172C78.946,98.654,60.5,114.55,60.5,114.55s-20.927-12.449-22.458-29.932
	C36.511,67.136,54.957,51.24,54.957,51.24S75.885,63.689,77.415,81.172z"/>
<path style="opacity:0.27;fill:#664400;enable-background:new    ;" d="M77.224,78.234c-3.016,14.229-16.399,25.771-16.399,25.771
	S42.47,93.084,38.883,77.336c-0.523,2.471-0.742,5.021-0.516,7.608c1.53,17.483,22.458,29.932,22.458,29.932
	S79.271,98.98,77.741,81.497C77.644,80.388,77.467,79.3,77.224,78.234z"/>
<path style="fill:#EEBF00;" d="M97.093,123.454c12.276,12.541,8.106,36.531,8.106,36.531s-24.074,3.657-36.35-8.884
	c-12.276-12.541-8.106-36.531-8.106-36.531S84.815,110.913,97.093,123.454z"/>
<path style="opacity:0.27;fill:#664400;enable-background:new    ;" d="M69.516,141.066c-6.426-6.565-8.563-16.085-9.112-23.865
	c-0.673,6.56-1.366,23.881,8.444,33.902c12.276,12.541,36.35,8.884,36.35,8.884s0.673-3.888,0.681-9.349
	C101.735,151.081,80.87,152.665,69.516,141.066z"/>
<path style="fill:#EEBF00;" d="M39.179,111.085c10.648,13.95,3.57,37.25,3.57,37.25s-24.341,0.681-34.988-13.27
	s-3.57-37.251-3.57-37.251S28.532,97.133,39.179,111.085z"/>
<path style="opacity:0.27;fill:#664400;enable-background:new    ;" d="M44.626,138.063c0,0-25.183,0.704-36.199-13.729
	c-4.011-5.255-5.584-11.79-5.972-17.979c-1.086,8.057-1.233,20.141,5.305,28.708c10.648,13.95,34.988,13.27,34.988,13.27
	s1.356-4.465,1.988-10.657C44.668,137.92,44.626,138.063,44.626,138.063z"/>
<path style="fill:#EEBF00;" d="M39.124,189.794c-4.051,0-7.479-3.125-7.789-7.231c-0.194-2.558-0.291-5.163-0.291-7.74
	c0-55.961,45.529-101.49,101.491-101.49c4.319,0,7.819,3.5,7.819,7.819s-3.5,7.819-7.819,7.819
	c-47.338,0-85.853,38.512-85.853,85.852c0,2.186,0.082,4.394,0.246,6.563c0.325,4.307-2.902,8.06-7.208,8.385
	C39.52,189.787,39.321,189.794,39.124,189.794z"/>
<g style="opacity:0.27;">
	<path style="fill:#664400;" d="M132.535,81.969c-47.338,0-85.853,38.512-85.853,85.852c0,1.228,0.032,2.461,0.084,3.693
		c1.76-45.799,39.546-82.52,85.768-82.52c4.319,0,7.819-3.5,7.819-7.819c0-1.265-0.308-2.455-0.84-3.512
		C138.227,80.216,135.589,81.969,132.535,81.969z"/>
</g>
<path style="fill:#EEBF00;" d="M52.732,383.34H23.481V185.101c0-1.728,1.4-3.128,3.128-3.128h22.996c1.728,0,3.128,1.4,3.128,3.128
	V383.34z"/>
<path style="opacity:0.27;fill:#664400;enable-background:new    ;" d="M49.602,181.975h-6.385v191.852H23.481v9.513h29.251V185.103
	C52.732,183.375,51.33,181.975,49.602,181.975z"/>
<path style="fill:#77757E;" d="M324.049,406.048H181.105c-8.037,0-14.613-6.575-14.613-14.612l0,0
	c0-8.037,6.575-14.613,14.613-14.613h142.944c8.037,0,14.613,6.575,14.613,14.613l0,0
	C338.662,399.472,332.087,406.048,324.049,406.048z"/>
<g>
	<polygon style="opacity:0.61;fill:#3E3B43;enable-background:new    ;" points="241.746,248.336 237.928,241.729 235.919,238.253 
		233.498,234.064 212.393,246.26 215.817,252.186 217.826,255.662 219.635,258.79 	"/>
	<polygon style="opacity:0.61;fill:#3E3B43;enable-background:new    ;" points="259.159,248.336 262.977,241.729 264.986,238.253 
		267.407,234.064 288.512,246.26 285.088,252.186 283.079,255.662 281.27,258.79 	"/>
</g>
<path style="fill:#EEBF00;" d="M343.78,83.928c15.517,8.197,37.327-2.632,37.327-2.632s-3.35-24.119-18.867-32.315
	c-15.517-8.197-37.327,2.632-37.327,2.632S328.262,75.732,343.78,83.928z"/>
<path style="opacity:0.27;fill:#664400;enable-background:new    ;" d="M343.78,76.717c13.136,6.938,30.776,0.245,35.883-1.975
	c1.069,3.87,1.444,6.552,1.444,6.552s-21.809,10.829-37.327,2.632s-18.867-32.315-18.867-32.315s0.518-0.256,1.444-0.659
	C328.497,58.707,333.429,71.25,343.78,76.717z"/>
<path style="fill:#EEBF00;" d="M388.938,54.258c0.487,17.543,20.636,31.215,20.636,31.215s19.359-14.77,18.872-32.312
	c-0.487-17.543-20.636-31.215-20.636-31.215S388.451,36.715,388.938,54.258z"/>
<path style="opacity:0.27;fill:#664400;enable-background:new    ;" d="M409.575,74.291c0,0,15.041-11.483,18.269-26.222
	c0.345,1.538,0.559,3.115,0.604,4.726c0.487,17.543-18.872,32.312-18.872,32.312s-20.15-13.673-20.636-31.215
	c-0.057-2.076,0.17-4.111,0.604-6.09C392.959,63.012,409.575,74.291,409.575,74.291z"/>
<path style="fill:#EEBF00;" d="M374.082,96.256c-11.581,13.185-6.121,36.916-6.121,36.916s24.236,2.352,35.817-10.833
	c11.581-13.185,6.121-36.916,6.121-36.916S385.663,83.071,374.082,96.256z"/>
<path style="opacity:0.27;fill:#664400;enable-background:new    ;" d="M367.96,123.259c0,0,24.236,2.352,35.817-10.833
	c4.761-5.421,6.639-12.622,7.204-19.227c0.633,8.099,0.166,20.751-7.204,29.142c-11.581,13.185-35.817,10.833-35.817,10.833
	s-1.89-8.23-1.082-17.689C367.24,120.112,367.96,123.259,367.96,123.259z"/>
<path style="fill:#EEBF00;" d="M436.37,81.172c-1.53,17.483,16.916,33.379,16.916,33.379s20.927-12.449,22.458-29.932
	S458.827,51.24,458.827,51.24S437.9,63.689,436.37,81.172z"/>
<path style="opacity:0.27;fill:#664400;enable-background:new    ;" d="M436.56,78.234c3.016,14.229,16.399,25.771,16.399,25.771
	s18.355-10.921,21.942-26.669c0.523,2.471,0.742,5.021,0.516,7.608c-1.53,17.483-22.458,29.932-22.458,29.932
	s-18.446-15.896-16.916-33.379C436.141,80.388,436.317,79.3,436.56,78.234z"/>
<path style="fill:#EEBF00;" d="M416.692,123.454c-12.276,12.541-8.106,36.531-8.106,36.531s24.074,3.657,36.35-8.884
	c12.276-12.541,8.106-36.531,8.106-36.531S428.97,110.913,416.692,123.454z"/>
<path style="opacity:0.27;fill:#664400;enable-background:new    ;" d="M444.269,141.066c6.426-6.565,8.563-16.085,9.112-23.865
	c0.673,6.56,1.366,23.881-8.444,33.902c-12.276,12.541-36.35,8.884-36.35,8.884s-0.673-3.888-0.681-9.349
	C412.05,151.081,432.915,152.665,444.269,141.066z"/>
<path style="fill:#EEBF00;" d="M474.605,111.085c-10.648,13.95-3.569,37.25-3.569,37.25s24.341,0.681,34.988-13.27
	s3.569-37.25,3.569-37.25S485.253,97.133,474.605,111.085z"/>
<path style="opacity:0.27;fill:#664400;enable-background:new    ;" d="M469.159,138.063c0,0,25.183,0.704,36.199-13.729
	c4.011-5.255,5.584-11.79,5.972-17.979c1.086,8.057,1.233,20.141-5.305,28.708c-10.648,13.95-34.988,13.27-34.988,13.27
	s-1.356-4.465-1.988-10.657C469.116,137.92,469.159,138.063,469.159,138.063z"/>
<path style="fill:#EEBF00;" d="M474.661,189.794c4.051,0,7.479-3.125,7.789-7.231c0.194-2.558,0.291-5.163,0.291-7.74
	c0-55.961-45.529-101.49-101.491-101.49c-4.319,0-7.819,3.5-7.819,7.819s3.5,7.819,7.819,7.819
	c47.338,0,85.853,38.512,85.853,85.852c0,2.186-0.082,4.394-0.246,6.563c-0.325,4.307,2.902,8.06,7.208,8.385
	C474.265,189.787,474.464,189.794,474.661,189.794z"/>
<g style="opacity:0.27;">
	<path style="fill:#664400;" d="M381.249,81.969c47.338,0,85.853,38.512,85.853,85.852c0,1.228-0.032,2.461-0.084,3.693
		c-1.76-45.799-39.546-82.52-85.768-82.52c-4.319,0-7.819-3.5-7.819-7.819c0-1.265,0.308-2.455,0.84-3.512
		C375.558,80.216,378.196,81.969,381.249,81.969z"/>
</g>
<path style="fill:#EEBF00;" d="M461.053,383.34h29.251V185.101c0-1.728-1.4-3.128-3.128-3.128h-22.996
	c-1.728,0-3.128,1.4-3.128,3.128V383.34z"/>
<path style="opacity:0.27;fill:#664400;enable-background:new    ;" d="M487.176,181.975h-6.385v191.852h-19.738v9.513h29.251
	V185.103C490.304,183.375,488.904,181.975,487.176,181.975z"/>
</svg>