<?xml version="1.0" encoding="iso-8859-1"?>
<!-- Uploaded to: SVG Repo, www.svgrepo.com, Generator: SVG Repo Mixer Tools -->
<svg version="1.1" id="Capa_1" xmlns="http://www.w3.org/2000/svg" xmlns:xlink="http://www.w3.org/1999/xlink" 
	 viewBox="0 0 320 320" xml:space="preserve">
<g id="XMLID_8_">
	<path id="XMLID_9_" style="fill:#0052B4;" d="M40,270v40h240v-40c0-49.202-29.615-91.479-71.988-110
		C250.385,141.479,280,99.202,280,50V10H40v40c0,49.202,29.615,91.479,71.988,110C69.615,178.521,40,220.798,40,270z"/>
	<path id="XMLID_10_" style="fill:#006DF0;" d="M280,50V10H160v300h120v-40c0-49.202-29.615-91.479-71.988-110
		C250.385,141.479,280,99.202,280,50z"/>
	<rect id="XMLID_11_" x="20" y="290" style="fill:#006DF0;" width="140" height="30"/>
	<rect id="XMLID_12_" x="160" y="290" style="fill:#78B9EB;" width="140" height="30"/>
	<rect id="XMLID_13_" x="20" style="fill:#006DF0;" width="140" height="30"/>
	<rect id="XMLID_14_" x="160" style="fill:#78B9EB;" width="140" height="30"/>
	<path id="XMLID_15_" style="fill:#FFFFFF;" d="M70,290v-20c0-35.785,21.197-68.172,54.003-82.511L160,171.755l35.997,15.734
		C228.803,201.828,250,234.215,250,270v20H70z"/>
	<path id="XMLID_16_" style="fill:#FFDA44;" d="M70,270v20h180v-20c0-40-90-60-90-60S70,230,70,270z"/>
	<path id="XMLID_17_" style="fill:#FFFFFF;" d="M124.003,132.511C91.197,118.172,70,85.785,70,50V30h180v20
		c0,35.785-21.197,68.172-54.003,82.511L160,148.245L124.003,132.511z"/>
	<path id="XMLID_18_" style="fill:#FFDA44;" d="M85.177,100c9.378,14.038,22.693,25.46,38.826,32.511L160,148.245l35.997-15.734
		c16.132-7.051,29.448-18.473,38.826-32.511H85.177z"/>
</g>
</svg>