<?xml version="1.0" encoding="iso-8859-1"?>
<!-- Uploaded to: SVG Repo, www.svgrepo.com, Generator: SVG Repo Mixer Tools -->
<svg version="1.1" id="Layer_1" xmlns="http://www.w3.org/2000/svg" xmlns:xlink="http://www.w3.org/1999/xlink" 
	 viewBox="0 0 512 512" xml:space="preserve">
<polygon style="fill:#CCA400;" points="320.409,205.12 304.275,294.529 210.084,294.529 190.887,202.818 "/>
<polygon style="fill:#EEBF00;" points="298.036,466.024 213.965,466.024 192.982,285.972 319.019,285.972 "/>
<path style="opacity:0.09;fill:#664400;enable-background:new    ;" d="M315.307,233.447l5.102-28.278h-0.008l0.008-0.049
	l-25.335-0.45l-0.008,0.049l-104.179-1.852l6.907,32.994c17.163,7.678,36.18,11.957,56.199,11.957
	c11.909,0,23.459-1.525,34.479-4.368l-7.24,42.523h13.199l-18.879,163.812h-63.479l1.893,16.241h84.071l20.983-180.053H305.82
	l9.477-52.521C315.3,233.45,315.303,233.448,315.307,233.447z"/>
<path style="fill:#FFE477;" d="M239.068,473.894c-3.949,0-7.353-2.965-7.809-6.982l-15.877-139.975
	c-0.49-4.318,2.613-8.216,6.932-8.705c4.312-0.494,8.216,2.613,8.705,6.932l15.877,139.975c0.49,4.318-2.613,8.216-6.932,8.705
	C239.664,473.877,239.364,473.894,239.068,473.894z"/>
<circle style="fill:#EEBF00;" cx="256.002" cy="112.668" r="112.668"/>
<rect x="148.108" y="466.02" style="fill:#664400;" width="210.438" height="45.976"/>
<polygon style="fill:#56361D;" points="336.841,466.024 336.841,494.708 148.106,494.708 148.106,512 358.544,512 358.544,466.024 
	"/>
<path style="opacity:0.37;fill:#664400;enable-background:new    ;" d="M256,225.342c25.003,0,48.1-8.15,66.791-21.93l-0.172-0.235
	l-37.733-53.373l-26.456-27.285l-31.324,27.285l-38.703,53.012l0,0C207.234,216.959,230.637,225.342,256,225.342z"/>
<path style="fill:#FFEB99;" d="M260.568,105.347l-4.571-44.458V0c-49.807,0.001-92.059,32.323-106.943,77.134l60.197,17.717
	L260.568,105.347z"/>
<path style="fill:#FFE477;" d="M260.568,105.346l-51.317-10.495l-60.197-17.718c-3.711,11.172-5.725,23.119-5.725,35.537
	c0,36.864,17.705,69.591,45.074,90.147l38.703-53.013L260.568,105.346z"/>
<path style="fill:#CCA400;" d="M302.743,94.492L256,112.311l27.39,37.133l39.229,53.733c27.923-20.507,46.051-53.566,46.051-90.867
	c0-12.419-2.014-24.365-5.725-35.538L302.743,94.492z"/>
<polygon style="fill:#FFDA44;" points="255.997,60.889 302.743,94.851 284.887,149.804 227.107,149.804 209.251,94.851 "/>
<path style="opacity:0.09;fill:#664400;enable-background:new    ;" d="M325.796,24.22c11.395,17.608,18.015,38.595,18.015,61.13
	c0,62.227-50.444,112.671-112.671,112.671c-26.36,0-50.603-9.054-69.795-24.22c20.07,31.015,54.965,51.541,94.656,51.541
	c62.227,0,112.671-50.444,112.671-112.671C368.671,76.804,351.91,44.854,325.796,24.22z"/>
</svg>