<?xml version="1.0" encoding="iso-8859-1"?>
<!-- Uploaded to: SVG Repo, www.svgrepo.com, Generator: SVG Repo Mixer Tools -->
<svg version="1.1" id="Capa_1" xmlns="http://www.w3.org/2000/svg" xmlns:xlink="http://www.w3.org/1999/xlink" 
	 viewBox="0 0 381.818 381.818" xml:space="preserve">
<g id="XMLID_30_">
	<rect id="XMLID_31_" x="175.909" y="25.909" style="fill:#0052B4;" width="30" height="140"/>
	<polygon id="XMLID_71_" style="fill:#FF9811;" points="280.909,85.909 175.909,85.909 175.909,25.909 280.909,25.909 
		260.909,55.909 	"/>
	<polygon id="XMLID_85_" style="fill:#FF5023;" points="280.909,85.909 175.909,85.909 280.909,25.909 260.909,55.909 	"/>
	<g id="XMLID_86_">
		<polygon id="XMLID_87_" style="fill:#0052B4;" points="50.909,355.909 330.909,355.909 190.909,135.909 		"/>
		<polygon id="XMLID_88_" style="fill:#006DF0;" points="190.909,355.909 330.909,355.909 190.909,135.909 		"/>
		<polygon id="XMLID_89_" style="fill:#78B9EB;" points="241.818,215.909 190.909,135.909 140,215.909 		"/>
		<polygon id="XMLID_90_" style="fill:#AED5F3;" points="241.818,215.909 190.909,135.909 190.909,215.909 		"/>
	</g>
	<g id="XMLID_91_">
		<polygon id="XMLID_92_" style="fill:#0052B4;" points="190.909,355.909 381.818,355.909 286.363,205.909 		"/>
		<polygon id="XMLID_93_" style="fill:#006DF0;" points="286.363,355.909 381.818,355.909 286.363,205.909 		"/>
		<polygon id="XMLID_102_" style="fill:#78B9EB;" points="321.074,260.455 286.363,205.909 251.653,260.455 		"/>
		<polygon id="XMLID_103_" style="fill:#AED5F3;" points="321.074,260.455 286.363,205.909 286.363,260.455 		"/>
	</g>
	<g id="XMLID_104_">
		<polygon id="XMLID_105_" style="fill:#0052B4;" points="0,355.909 190.909,355.909 95.454,205.909 		"/>
		<polygon id="XMLID_106_" style="fill:#006DF0;" points="95.454,355.909 190.909,355.909 95.454,205.909 		"/>
		<polygon id="XMLID_107_" style="fill:#78B9EB;" points="130.165,260.455 95.454,205.909 60.744,260.455 		"/>
		<polygon id="XMLID_108_" style="fill:#AED5F3;" points="130.165,260.455 95.454,205.909 95.454,260.455 		"/>
	</g>
</g>
</svg>