<?xml version="1.0" encoding="iso-8859-1"?>
<!-- Uploaded to: SVG Repo, www.svgrepo.com, Generator: SVG Repo Mixer Tools -->
<svg version="1.1" id="Layer_1" xmlns="http://www.w3.org/2000/svg" xmlns:xlink="http://www.w3.org/1999/xlink" 
	 viewBox="0 0 512.002 512.002" xml:space="preserve">
<polygon style="fill:#DDB200;" points="388.693,105.828 336.991,232.569 175.069,238.587 120.911,105.828 "/>
<polygon style="opacity:0.3;fill:#663C1D;enable-background:new    ;" points="388.693,105.828 336.991,232.569 175.069,238.587 
	120.911,105.828 "/>
<polygon style="fill:#DDB200;" points="339.591,264.489 256.103,433.396 172.614,264.599 256.307,195.272 "/>
<g style="opacity:0.3;">
	<path style="fill:#663C1D;" d="M255.999,419.312l-1.197-189.941c0-4.194-2.915-5.881,1.279-5.881s83.511,36.807,83.511,41
		l-76.527,154.822H255.999z"/>
</g>
<g>
	<path style="fill:#663C1D;" d="M300.892,447.481h-89.788c-7.746,0-14.085-6.338-14.085-14.085l0,0
		c0-7.746,6.338-14.085,14.085-14.085h89.788c7.746,0,14.085,6.338,14.085,14.085l0,0
		C314.977,441.143,308.639,447.481,300.892,447.481z"/>
	<rect x="145.727" y="447.481" style="fill:#663C1D;" width="220.531" height="56.927"/>
</g>
<polygon style="fill:#EEBF00;" points="208.109,83.769 255.935,7.593 303.859,83.706 391.086,105.651 333.507,174.75 
	339.591,264.489 256.081,231.082 172.614,264.599 178.58,174.853 120.911,105.828 "/>
<g style="opacity:0.32;">
	<polygon style="fill:#FFEB99;" points="303.692,83.706 290.832,63.283 163.493,156.995 178.413,174.853 174.953,226.897 
		352.755,96.049 	"/>
</g>
<g>
	<rect x="145.727" y="481.143" style="fill:#56361D;" width="220.531" height="23.263"/>
	<path style="fill:#56361D;" d="M303.838,419.646c0.214,0.971,0.333,1.975,0.333,3.007l0,0c0,7.746-6.338,14.085-14.085,14.085
		h-89.788c-1.033,0-2.037-0.12-3.008-0.333c1.388,6.312,7.036,11.077,13.75,11.077h89.788c7.746,0,14.085-6.338,14.085-14.085l0,0
		C314.914,426.682,310.15,421.034,303.838,419.646z"/>
</g>
<path d="M345.059,232.889l48.066-117.825l3.793-4.553c1.671-2.005,2.195-4.729,1.387-7.211c-0.808-2.482-2.836-4.376-5.368-5.012
	l-84.275-21.202L262.359,3.547C260.969,1.339,258.544,0,255.934,0c-0.001,0-0.003,0-0.005,0c-2.611,0.002-5.038,1.344-6.426,3.556
	l-46.207,73.598l-84.248,21.314c-0.034,0.009-0.067,0.023-0.102,0.032c-0.227,0.061-0.452,0.135-0.675,0.218
	c-0.06,0.022-0.121,0.039-0.181,0.064c-0.016,0.006-0.032,0.01-0.048,0.017c-0.261,0.106-0.512,0.229-0.755,0.36
	c-0.049,0.026-0.094,0.058-0.142,0.085c-0.212,0.121-0.417,0.25-0.614,0.389c-0.063,0.045-0.124,0.091-0.185,0.138
	c-0.182,0.138-0.357,0.281-0.525,0.433c-0.053,0.048-0.105,0.093-0.157,0.143c-0.201,0.192-0.393,0.393-0.57,0.604
	c-0.009,0.011-0.02,0.021-0.029,0.031c-0.187,0.227-0.359,0.465-0.518,0.711c-0.04,0.062-0.075,0.127-0.113,0.189
	c-0.113,0.187-0.22,0.379-0.317,0.574c-0.04,0.081-0.08,0.163-0.117,0.246c-0.099,0.219-0.187,0.441-0.265,0.668
	c-0.013,0.039-0.033,0.077-0.047,0.117c-0.003,0.011-0.005,0.022-0.008,0.032c-0.089,0.279-0.161,0.565-0.218,0.854
	c-0.012,0.064-0.02,0.129-0.03,0.193c-0.038,0.229-0.068,0.459-0.085,0.691c-0.006,0.079-0.011,0.157-0.014,0.235
	c-0.011,0.239-0.01,0.479,0.003,0.719c0.003,0.054,0.002,0.107,0.006,0.161c0.021,0.296,0.058,0.592,0.115,0.888
	c0.005,0.024,0.012,0.049,0.017,0.073c0.052,0.254,0.117,0.507,0.197,0.759c0.029,0.094,0.065,0.185,0.097,0.278
	c0.038,0.108,0.07,0.217,0.113,0.324l51.703,126.74c0.308,0.755,0.727,1.431,1.225,2.023l-1.765,26.546
	c-0.001,0.008-0.001,0.016-0.002,0.024l-0.004,0.067c-0.002,0.03,0.001,0.06,0,0.09c-0.014,0.258-0.014,0.518-0.002,0.779
	c0.004,0.076,0.009,0.151,0.015,0.226c0.018,0.234,0.048,0.467,0.088,0.7c0.011,0.063,0.019,0.126,0.031,0.188
	c0.112,0.567,0.292,1.128,0.541,1.672c0.037,0.083,0.082,0.163,0.122,0.244c0.059,0.117,0.111,0.237,0.177,0.352l81.361,143.373
	h-36.266c-11.952,0-21.678,9.724-21.678,21.677c0,2.261,0.35,4.44,0.995,6.491h-44.691c-4.193,0-7.593,3.399-7.593,7.593v56.926
	c0,4.194,3.4,7.593,7.593,7.593h220.534c4.193,0,7.593-3.399,7.593-7.593v-56.928c0-4.194-3.4-7.593-7.593-7.593h-44.691
	c0.645-2.051,0.995-4.231,0.995-6.491c0-11.952-9.724-21.677-21.677-21.677h-36.06l81.364-143.485
	c0.066-0.116,0.119-0.237,0.178-0.355c0.04-0.082,0.085-0.162,0.124-0.245c0.249-0.545,0.426-1.106,0.539-1.672
	c0.013-0.064,0.021-0.129,0.032-0.193c0.039-0.232,0.069-0.463,0.086-0.696c0.006-0.076,0.012-0.152,0.015-0.229
	c0.012-0.259,0.011-0.517-0.003-0.775c-0.002-0.031,0.002-0.062,0-0.093l-0.004-0.065c0-0.004-0.001-0.009-0.001-0.013
	L345.059,232.889z M248.488,382.919l-64.982-114.512l64.982-26.095L248.488,382.919L248.488,382.919z M263.674,242.298
	l65.023,26.012l-65.023,114.668V242.298z M342.722,198.415l-1.434-21.141l19.705-23.648L342.722,198.415z M327.674,169.891
	c-1.25,1.499-1.875,3.425-1.742,5.375l3.747,55.267c-0.48,1.716-0.328,3.489,0.342,5.043l1.178,17.38l-72.159-28.867
	c-0.004-0.002-0.009-0.003-0.013-0.005l-0.127-0.051c-0.067-0.026-0.136-0.046-0.202-0.07c-0.148-0.055-0.295-0.108-0.446-0.154
	c-0.084-0.025-0.168-0.043-0.252-0.065c-0.152-0.039-0.304-0.08-0.459-0.11c-0.101-0.02-0.203-0.031-0.306-0.047
	c-0.14-0.021-0.277-0.046-0.419-0.06c-0.18-0.017-0.36-0.022-0.541-0.027c-0.065-0.002-0.129-0.01-0.194-0.01
	c-0.035,0-0.07,0.005-0.105,0.005c-0.212,0.003-0.424,0.011-0.635,0.032c-0.138,0.013-0.272,0.037-0.408,0.059
	c-0.106,0.016-0.213,0.027-0.318,0.049c-0.155,0.03-0.305,0.071-0.457,0.11c-0.085,0.022-0.17,0.04-0.254,0.065
	c-0.156,0.047-0.306,0.102-0.458,0.159c-0.065,0.024-0.132,0.043-0.195,0.068l-0.106,0.043c-0.009,0.004-0.019,0.007-0.028,0.011
	l-72.124,28.963l1.471-22.131l172.077-126.635l22.982,5.782L327.674,169.891z M335.446,99.483L183.781,211.096l2.376-35.74
	c0.13-1.949-0.497-3.872-1.749-5.372l-9.742-11.661l114.259-84.085l8.509,13.515c1.041,1.653,2.679,2.842,4.573,3.318
	L335.446,99.483z M209.972,91.13c1.894-0.479,3.53-1.668,4.569-3.323l41.403-65.949l24.868,39.495L164.91,146.647l-30.428-36.419
	L209.972,91.13z M146.377,148.151l24.426,29.235l-1.751,26.347L146.377,148.151z M358.673,496.814H153.324v-41.74h57.781h89.788
	h57.781V496.814z M307.384,433.396c0,3.579-2.912,6.491-6.491,6.491h-89.788c-3.579,0-6.492-2.913-6.492-6.491
	s2.912-6.491,6.492-6.491h89.788C304.472,426.906,307.384,429.817,307.384,433.396z"/>
</svg>