<?xml version="1.0" encoding="iso-8859-1"?>
<!-- Uploaded to: SVG Repo, www.svgrepo.com, Generator: SVG Repo Mixer Tools -->
<svg version="1.1" id="Capa_1" xmlns="http://www.w3.org/2000/svg" xmlns:xlink="http://www.w3.org/1999/xlink" 
	 viewBox="0 0 300 300" xml:space="preserve">
<g id="XMLID_940_">
	<circle id="XMLID_941_" style="fill:#FFDA44;" cx="150" cy="150" r="132.5"/>
	<path id="XMLID_942_" style="fill:#FFFFFF;" d="M150,252.5c-56.521,0-102.5-45.98-102.5-102.5S93.479,47.5,150,47.5
		S252.5,93.479,252.5,150S206.52,252.5,150,252.5z"/>
	<rect id="XMLID_943_" x="135" y="80" style="fill:#FFDA44;" width="30" height="140"/>
	<rect id="XMLID_46_" x="80" y="135" style="fill:#FFDA44;" width="140" height="30"/>
	<g id="XMLID_944_">
		<rect id="XMLID_945_" x="110" y="110" style="fill:#0052B4;" width="40" height="80"/>
		<rect id="XMLID_946_" x="150" y="110" style="fill:#78B9EB;" width="40" height="80"/>
	</g>
	<g id="XMLID_947_">
		<rect id="XMLID_948_" x="110" style="fill:#0052B4;" width="40" height="80"/>
		<rect id="XMLID_949_" x="150" style="fill:#006DF0;" width="40" height="80"/>
	</g>
	<g id="XMLID_950_">
		<rect id="XMLID_951_" y="110" style="fill:#0052B4;" width="40" height="80"/>
		<rect id="XMLID_952_" x="40" y="110" style="fill:#006DF0;" width="40" height="80"/>
	</g>
	<g id="XMLID_953_">
		<rect id="XMLID_954_" x="220" y="110" style="fill:#0052B4;" width="40" height="80"/>
		<rect id="XMLID_955_" x="260" y="110" style="fill:#006DF0;" width="40" height="80"/>
	</g>
	<g id="XMLID_956_">
		<rect id="XMLID_957_" x="110" y="220" style="fill:#0052B4;" width="40" height="80"/>
		<rect id="XMLID_958_" x="150" y="220" style="fill:#006DF0;" width="40" height="80"/>
	</g>
</g>
</svg>