<?xml version="1.0" encoding="iso-8859-1"?>
<!-- Uploaded to: SVG Repo, www.svgrepo.com, Generator: SVG Repo Mixer Tools -->
<svg height="800px" width="800px" version="1.1" id="Layer_1" xmlns="http://www.w3.org/2000/svg" xmlns:xlink="http://www.w3.org/1999/xlink" 
	 viewBox="0 0 512 512" xml:space="preserve">
<g>
	<path style="fill:#FEE187;" d="M386.613,278.015H106.937c22.017,41.52,59.13,72.31,103.147,83.471l-12.68,78.717
		c-4.897,30.4,18.579,57.96,49.371,57.96l0,0c30.791,0,54.266-27.559,49.371-57.958l-12.68-78.717
		C327.484,350.324,364.597,319.535,386.613,278.015z"/>
	<circle style="fill:#FEE187;" cx="371.311" cy="159.135" r="55.351"/>
</g>
<path style="fill:#FFC61B;" d="M302.126,159.135c0,38.151,31.038,69.189,69.189,69.189s69.189-31.038,69.189-69.189
	c0-28.363-17.16-52.782-41.639-63.452C368.607,38.569,311.782,0,246.776,0c-96.649,0-175.28,85.213-175.28,189.955
	c0,33.977,8.278,65.897,22.758,93.52c0.148,0.342,0.282,0.689,0.459,1.021c22.03,41.544,57.94,72.617,99.776,86.795l-10.745,66.711
	c-2.979,18.498,2.279,37.289,14.43,51.553C210.325,503.819,228.038,512,246.776,512s36.452-8.181,48.603-22.445
	c12.151-14.264,17.409-33.054,14.43-51.553l-10.745-66.711c41.836-14.178,77.748-45.25,99.776-86.795
	c2.275-4.29,2.134-9.457-0.369-13.616c-2.503-4.16-7.002-6.704-11.856-6.704H115.556c-10.46-22.257-16.384-47.49-16.384-74.222
	c0-89.48,66.214-162.278,147.604-162.278c47.296,0,89.452,24.598,116.483,62.755C328.891,94.436,302.126,123.71,302.126,159.135z
	 M361.627,291.852c-20.639,28.038-49.416,48.069-81.562,56.22c-6.948,1.762-11.4,8.538-10.261,15.613l12.678,78.718
	c1.69,10.479-1.291,21.125-8.173,29.205c-6.884,8.08-16.92,12.714-27.535,12.714c-10.615,0-20.65-4.636-27.533-12.714
	c-6.883-8.081-9.862-18.725-8.175-29.206l12.68-78.717c1.14-7.075-3.313-13.852-10.261-15.613
	c-32.145-8.152-60.922-28.181-81.563-56.22H361.627z M371.315,117.622c22.891,0,41.513,18.623,41.513,41.514
	s-18.623,41.514-41.513,41.514c-22.891,0-41.514-18.623-41.514-41.514S348.424,117.622,371.315,117.622z"/>
</svg>