<?xml version="1.0" encoding="iso-8859-1"?>
<!-- Uploaded to: SVG Repo, www.svgrepo.com, Generator: SVG Repo Mixer Tools -->
<svg height="800px" width="800px" version="1.1" id="Capa_1" xmlns="http://www.w3.org/2000/svg" xmlns:xlink="http://www.w3.org/1999/xlink" 
	 viewBox="0 0 310 310" xml:space="preserve">
<g id="XMLID_2_">
	<g id="XMLID_4_">
		<path id="XMLID_5_" style="fill:#0052B4;" d="M260,140c-5.809,0-12.716,0.994-20,2.816V70h-72.816
			C169.006,62.716,170,55.809,170,50c0-27.614-22.386-50-50-50S70,22.386,70,50c0,5.809,0.994,12.716,2.816,20H0v72.816
			C7.284,140.994,14.191,140,20,140c27.614,0,50,22.386,50,50s-22.386,50-50,50c-5.809,0-12.716-0.994-20-2.816V310h72.816
			C70.994,302.716,70,295.809,70,290c0-27.614,22.386-50,50-50s50,22.386,50,50c0,5.809-0.994,12.716-2.816,20H240v-72.816
			c7.284,1.822,14.191,2.816,20,2.816c27.614,0,50-22.386,50-50S287.614,140,260,140z"/>
	</g>
	<g id="XMLID_6_">
		<path id="XMLID_7_" style="fill:#006DF0;" d="M260,140c-5.809,0-12.716,0.994-20,2.816V70h-72.816
			C169.006,62.716,170,55.809,170,50c0-27.614-22.386-50-50-50c0,17.333,0,236.349,0,240c27.614,0,50,22.386,50,50
			c0,5.809-0.994,12.716-2.816,20H240v-72.816c7.284,1.822,14.191,2.816,20,2.816c27.614,0,50-22.386,50-50S287.614,140,260,140z"/>
	</g>
</g>
</svg>