<?xml version="1.0" encoding="iso-8859-1"?>
<!-- Uploaded to: SVG Repo, www.svgrepo.com, Generator: SVG Repo Mixer Tools -->
<svg version="1.1" id="Layer_1" xmlns="http://www.w3.org/2000/svg" xmlns:xlink="http://www.w3.org/1999/xlink" 
	 viewBox="0 0 512.003 512.003" xml:space="preserve">
<polygon style="fill:#DDB200;" points="170.444,73.542 256.003,381.619 341.561,73.542 "/>
<g style="opacity:0.27;">
	<polygon style="fill:#663C1D;" points="255.941,73.542 255.941,381.619 341.499,73.542 	"/>
</g>
<g>
	<polygon style="fill:#DDB200;" points="43.008,318.36 256.003,381.619 177.998,214.262 	"/>
	<polygon style="fill:#DDB200;" points="468.997,318.36 256.003,381.619 334.007,214.262 	"/>
</g>
<polygon style="fill:#EEBF00;" points="256.003,148.211 308.88,174.122 300.578,115.825 341.561,73.542 283.551,63.424 
	256.003,11.381 228.454,63.424 170.444,73.542 211.427,115.825 203.125,174.122 "/>
<g>
	<polygon style="opacity:0.4;fill:#663C1D;enable-background:new    ;" points="467.404,318.36 418.126,280.359 257.384,380.735 	
		"/>
	<polygon style="opacity:0.4;fill:#663C1D;enable-background:new    ;" points="43.008,318.36 90.787,278.477 250.778,380.735 	"/>
	<rect x="180.929" y="380.731" style="fill:#663C1D;" width="150.136" height="86.132"/>
	<rect x="110.005" y="441.928" style="fill:#663C1D;" width="291.953" height="58.7"/>
</g>
<g>
	<polygon style="fill:#EEBF00;" points="446.926,207.405 504.404,219.133 462.39,260.071 468.997,318.36 417.08,291.052 
		363.686,315.348 373.613,257.533 334.007,214.262 392.06,205.837 420.975,154.797 	"/>
	<polygon style="fill:#EEBF00;" points="65.079,207.405 7.601,219.133 49.615,260.071 43.008,318.36 94.925,291.052 
		148.319,315.348 138.392,257.533 177.998,214.262 119.945,205.837 91.03,154.797 	"/>
</g>
<g>
	<rect x="298.723" y="380.731" style="fill:#56361D;" width="32.352" height="61.187"/>
	<rect x="369.606" y="441.928" style="fill:#56361D;" width="32.352" height="58.7"/>
	<rect x="110.005" y="474.35" style="fill:#56361D;" width="270.21" height="26.275"/>
</g>
<g>
	<polygon style="opacity:0.38;fill:#FFEB99;enable-background:new    ;" points="446.926,207.978 441.262,196.494 372.362,265.394 
		363.686,315.92 400.504,299.167 484.107,215.564 	"/>
	<polygon style="opacity:0.38;fill:#FFEB99;enable-background:new    ;" points="284.424,63.424 276.694,48.822 211.016,114.5 
		212.299,115.825 203.997,174.122 231.105,160.838 321.971,69.973 	"/>
	<polygon style="opacity:0.38;fill:#FFEB99;enable-background:new    ;" points="119.945,205.837 117.294,201.157 48.495,269.956 
		43.008,318.36 79.991,298.907 166.331,212.568 	"/>
</g>
<path d="M511.695,216.991c-0.793-2.7-3.014-4.742-5.772-5.304l-53.827-10.983l-24.305-49.27c-1.245-2.524-3.784-4.154-6.599-4.234
	c-2.798-0.06-5.441,1.401-6.828,3.85l-27.08,47.801l-54.368,7.891c-0.006,0.001-0.012,0.003-0.018,0.004
	c-0.317,0.047-0.629,0.117-0.936,0.203c-0.063,0.017-0.124,0.038-0.186,0.058c-0.246,0.076-0.488,0.164-0.726,0.264
	c-0.062,0.026-0.125,0.05-0.185,0.078c-0.283,0.129-0.559,0.272-0.825,0.435c-0.023,0.014-0.045,0.03-0.068,0.046
	c-0.241,0.151-0.472,0.318-0.696,0.496c-0.052,0.042-0.102,0.083-0.153,0.126c-0.219,0.184-0.43,0.379-0.628,0.589
	c-0.017,0.018-0.036,0.034-0.053,0.053c-0.213,0.23-0.412,0.475-0.598,0.735c-0.038,0.054-0.072,0.109-0.109,0.164
	c-0.137,0.201-0.264,0.41-0.383,0.627c-0.046,0.082-0.09,0.165-0.132,0.249c-0.031,0.063-0.068,0.122-0.098,0.185l-39.244,84.197
	l61.007-219.673c0.018-0.065,0.027-0.131,0.044-0.196c0.023-0.092,0.043-0.184,0.062-0.278c0.05-0.235,0.087-0.47,0.114-0.704
	c0.008-0.07,0.019-0.139,0.025-0.21c0.027-0.316,0.037-0.631,0.025-0.943c-0.001-0.019-0.004-0.039-0.005-0.058
	c-0.014-0.296-0.048-0.588-0.095-0.876c-0.011-0.069-0.023-0.137-0.036-0.206c-0.056-0.29-0.126-0.575-0.215-0.855
	c-0.006-0.018-0.008-0.037-0.014-0.056c-0.002-0.005-0.004-0.01-0.006-0.014c-0.097-0.298-0.217-0.587-0.351-0.869
	c-0.033-0.072-0.071-0.142-0.107-0.213c-0.111-0.22-0.234-0.433-0.367-0.64c-0.038-0.06-0.074-0.122-0.113-0.18
	c-0.171-0.252-0.357-0.495-0.558-0.726c-0.032-0.036-0.067-0.071-0.1-0.106c-0.177-0.197-0.366-0.383-0.564-0.56
	c-0.053-0.048-0.105-0.094-0.159-0.14c-0.226-0.19-0.46-0.372-0.709-0.537c-0.01-0.007-0.019-0.014-0.029-0.021
	c-0.26-0.17-0.535-0.323-0.82-0.462c-0.067-0.033-0.137-0.062-0.206-0.092c-0.215-0.097-0.435-0.184-0.661-0.262
	c-0.09-0.031-0.18-0.063-0.272-0.09c-0.058-0.017-0.112-0.041-0.171-0.057c-0.228-0.064-0.456-0.112-0.684-0.154
	c-0.015-0.003-0.028-0.008-0.044-0.01l-0.019-0.003c-0.008-0.001-0.016-0.003-0.025-0.004l-54.297-9.47L262.719,7.826
	c-1.317-2.487-3.902-4.044-6.716-4.044c-2.815,0-5.399,1.556-6.715,4.044L223.48,56.578l-54.3,9.471
	c-0.007,0.001-0.013,0.002-0.02,0.003l-0.02,0.004c-0.016,0.003-0.03,0.009-0.047,0.011c-0.227,0.042-0.455,0.09-0.681,0.153
	c-0.059,0.016-0.115,0.04-0.172,0.058c-0.09,0.027-0.179,0.059-0.269,0.089c-0.228,0.078-0.449,0.166-0.665,0.264
	c-0.068,0.03-0.136,0.058-0.203,0.091c-0.285,0.139-0.56,0.292-0.822,0.463c-0.009,0.006-0.018,0.013-0.027,0.019
	c-0.25,0.165-0.485,0.348-0.712,0.539c-0.054,0.046-0.106,0.092-0.159,0.14c-0.199,0.178-0.387,0.364-0.564,0.56
	c-0.032,0.036-0.068,0.07-0.1,0.106c-0.201,0.231-0.387,0.474-0.558,0.726c-0.04,0.059-0.075,0.121-0.113,0.18
	c-0.133,0.208-0.254,0.421-0.367,0.64c-0.036,0.071-0.073,0.141-0.107,0.213c-0.133,0.283-0.252,0.571-0.351,0.869
	c-0.002,0.005-0.004,0.01-0.006,0.014c-0.006,0.018-0.008,0.037-0.014,0.056c-0.089,0.28-0.158,0.565-0.214,0.855
	c-0.013,0.069-0.025,0.137-0.037,0.206c-0.048,0.29-0.082,0.582-0.096,0.877c-0.001,0.018-0.004,0.037-0.004,0.056
	c-0.012,0.313-0.002,0.628,0.025,0.945c0.006,0.069,0.017,0.137,0.024,0.205c0.027,0.237,0.065,0.473,0.115,0.71
	c0.019,0.091,0.038,0.181,0.061,0.272c0.016,0.066,0.026,0.133,0.045,0.199l61.007,219.673l-39.243-84.197
	c-0.029-0.062-0.065-0.119-0.095-0.179c-0.045-0.089-0.091-0.175-0.139-0.261c-0.115-0.211-0.239-0.413-0.372-0.609
	c-0.041-0.06-0.078-0.123-0.121-0.181c-0.183-0.255-0.38-0.497-0.59-0.724c-0.023-0.025-0.05-0.048-0.073-0.073
	c-0.191-0.202-0.394-0.389-0.604-0.566c-0.057-0.048-0.112-0.094-0.17-0.14c-0.214-0.17-0.436-0.329-0.666-0.474
	c-0.032-0.02-0.063-0.044-0.096-0.064c-0.261-0.159-0.533-0.301-0.811-0.428c-0.069-0.031-0.139-0.058-0.208-0.087
	c-0.228-0.096-0.461-0.18-0.697-0.254c-0.07-0.021-0.138-0.045-0.208-0.065c-0.304-0.085-0.611-0.153-0.924-0.2
	c-0.008-0.001-0.015-0.004-0.023-0.005l-54.368-7.891l-27.08-47.801c-1.388-2.449-4.036-3.946-6.829-3.85
	c-2.814,0.08-5.353,1.71-6.598,4.234l-24.305,49.27L6.08,211.685c-2.758,0.563-4.979,2.604-5.772,5.304
	c-0.793,2.701-0.027,5.619,1.988,7.584l39.348,38.339l-6.189,54.589c-0.003,0.022-0.001,0.045-0.003,0.067
	c-0.034,0.322-0.05,0.642-0.043,0.961c0.001,0.026,0.004,0.052,0.005,0.078c0.009,0.29,0.037,0.576,0.08,0.858
	c0.01,0.071,0.022,0.142,0.034,0.213c0.049,0.277,0.11,0.549,0.189,0.817c0.009,0.031,0.015,0.063,0.024,0.094
	c0.09,0.293,0.201,0.578,0.324,0.856c0.031,0.07,0.066,0.137,0.099,0.206c0.104,0.217,0.219,0.428,0.342,0.633
	c0.041,0.067,0.078,0.134,0.121,0.2c0.166,0.256,0.343,0.505,0.54,0.74c0.021,0.025,0.045,0.048,0.066,0.073
	c0.182,0.214,0.378,0.415,0.585,0.608c0.053,0.05,0.106,0.098,0.161,0.146c0.222,0.196,0.453,0.382,0.699,0.552
	c0.013,0.009,0.023,0.02,0.036,0.028c0.003,0.002,0.007,0.004,0.01,0.006c0.285,0.195,0.589,0.365,0.903,0.521
	c0.069,0.034,0.137,0.066,0.207,0.097c0.275,0.126,0.558,0.239,0.853,0.333c0.04,0.013,0.078,0.029,0.119,0.042
	c0.012,0.004,0.023,0.009,0.034,0.012l167.363,49.706h-27.274c-4.197,0-7.599,3.401-7.599,7.599v51.376h-63.327
	c-4.197,0-7.599,3.401-7.599,7.599v58.7c0,4.198,3.402,7.599,7.599,7.599H401.96c4.198,0,7.599-3.401,7.599-7.599v-58.7
	c0-4.198-3.401-7.599-7.599-7.599h-63.29v-51.376c0-4.198-3.401-7.599-7.599-7.599h-27.274l167.362-49.706
	c0.012-0.004,0.023-0.009,0.035-0.012c0.037-0.011,0.074-0.027,0.112-0.04c0.297-0.095,0.583-0.209,0.86-0.335
	c0.068-0.031,0.136-0.062,0.203-0.095c0.316-0.156,0.62-0.328,0.906-0.523c0.003-0.002,0.006-0.003,0.009-0.005
	c0.011-0.007,0.02-0.017,0.031-0.024c0.248-0.172,0.482-0.36,0.706-0.557c0.054-0.048,0.106-0.095,0.158-0.144
	c0.207-0.194,0.404-0.396,0.587-0.611c0.02-0.024,0.044-0.047,0.064-0.071c0.196-0.235,0.374-0.483,0.54-0.74
	c0.043-0.066,0.081-0.135,0.123-0.202c0.124-0.205,0.237-0.413,0.34-0.629c0.033-0.07,0.069-0.139,0.101-0.21
	c0.124-0.278,0.233-0.561,0.323-0.853c0.01-0.033,0.017-0.068,0.026-0.101c0.078-0.264,0.139-0.534,0.187-0.808
	c0.013-0.073,0.024-0.146,0.035-0.219c0.042-0.282,0.07-0.565,0.079-0.852c0.001-0.027,0.005-0.054,0.005-0.081
	c0.007-0.318-0.009-0.638-0.043-0.96c-0.002-0.022,0-0.044-0.003-0.066l-6.188-54.589l39.348-38.339
	C511.722,222.61,512.487,219.692,511.695,216.991z M394.363,493.025H117.606v-43.502h276.757V493.025z M175.918,227.788
	l63.009,135.183l-83.695-52.264l-8.721-50.79L175.918,227.788z M144.717,322.058l56.745,35.435l-138.39-41.1l32.095-16.881
	L144.717,322.058z M185.748,100.251l17.631,18.19l-4.264,29.94L185.748,100.251z M304.048,180.216l-40.447,145.641V160.396
	L304.048,180.216z M308.626,118.441l17.631-18.19l-13.367,48.132L308.626,118.441z M248.404,325.857l-40.447-145.641l40.447-19.82
	V325.857z M367.289,322.058l49.549-22.548l32.094,16.881l-138.388,41.1L367.289,322.058z M356.773,310.707l-83.695,52.264
	l63.009-135.183l29.408,32.128L356.773,310.707z M229.759,70.91c2.314-0.403,4.311-1.855,5.41-3.931l20.833-39.356l20.833,39.356
	c1.099,2.076,3.097,3.527,5.41,3.931l43.867,7.652l-30.993,31.975c-1.634,1.687-2.397,4.035-2.066,6.36l6.278,44.084l-39.987-19.594
	c-0.043-0.021-0.087-0.034-0.13-0.055c-0.176-0.083-0.357-0.158-0.54-0.227c-0.079-0.029-0.157-0.06-0.237-0.087
	c-0.183-0.062-0.371-0.116-0.56-0.163c-0.08-0.02-0.159-0.044-0.239-0.062c-0.193-0.043-0.389-0.073-0.587-0.1
	c-0.077-0.011-0.153-0.027-0.231-0.035c-0.23-0.024-0.464-0.036-0.7-0.04c-0.081-0.001-0.161-0.001-0.242,0
	c-0.234,0.004-0.466,0.015-0.695,0.04c-0.079,0.009-0.158,0.025-0.237,0.036c-0.196,0.027-0.39,0.058-0.581,0.099
	c-0.083,0.018-0.164,0.043-0.246,0.064c-0.186,0.048-0.371,0.099-0.551,0.161c-0.082,0.028-0.164,0.059-0.245,0.09
	c-0.18,0.068-0.357,0.142-0.53,0.223c-0.045,0.021-0.091,0.035-0.136,0.057l-39.987,19.595l6.278-44.085
	c0.331-2.325-0.432-4.673-2.067-6.36l-30.992-31.975L229.759,70.91z M23.186,223.709l43.411-8.857
	c2.301-0.47,4.256-1.977,5.296-4.083l19.601-39.736l21.839,38.55c1.158,2.044,3.196,3.437,5.52,3.774l43.847,6.364l-29.914,32.683
	c-1.586,1.733-2.282,4.101-1.884,6.417l7.498,43.668l-40.327-18.351c-2.137-0.974-4.605-0.903-6.685,0.19l-39.213,20.625
	l4.991-44.024c0.264-2.334-0.565-4.66-2.247-6.299L23.186,223.709z M323.473,434.05H188.532v-43.503h134.942V434.05z
	 M457.086,254.628c-1.682,1.639-2.512,3.965-2.247,6.299l4.991,44.024l-39.213-20.625c-1.105-0.582-2.32-0.873-3.537-0.873
	c-1.073,0-2.146,0.227-3.147,0.683l-40.327,18.35l7.498-43.667c0.398-2.315-0.298-4.684-1.884-6.417l-29.914-32.683l43.846-6.364
	c2.324-0.337,4.363-1.731,5.52-3.774l21.839-38.55l19.601,39.736c1.04,2.106,2.995,3.613,5.297,4.083l43.41,8.857L457.086,254.628z"
	/>
</svg>