<?xml version="1.0" encoding="iso-8859-1"?>
<!-- Uploaded to: SVG Repo, www.svgrepo.com, Generator: SVG Repo Mixer Tools -->
<svg version="1.1" id="Layer_1" xmlns="http://www.w3.org/2000/svg" xmlns:xlink="http://www.w3.org/1999/xlink" 
	 viewBox="0 0 512 512" xml:space="preserve">
<g>
	<path id="SVGCleanerId_0" style="fill:#DDB200;" d="M256,176.594c13.971-46.21,31.337-73.862,31.337-73.862l176.434,126.405
		c0,0-132.19,8.114-206.717,180.835L256,176.594z"/>
</g>
<g>
	<g>
		<path id="SVGCleanerId_0_1_" style="fill:#663C1D;" d="M256,176.594c13.971-46.21,31.337-73.862,31.337-73.862l176.434,126.405
			c0,0-132.19,8.114-206.717,180.835L256,176.594z"/>
	</g>
	<g>
		<path id="SVGCleanerId_0_2_" style="fill:#663C1D;" d="M256,176.594c13.971-46.21,31.337-73.862,31.337-73.862l176.434,126.405
			c0,0-132.19,8.114-206.717,180.835L256,176.594z"/>
	</g>
</g>
<path style="fill:#DDB200;" d="M228.41,102.731c0,0,84.899,135.191,30.284,307.241C184.166,237.251,51.976,229.137,51.976,229.137
	L228.41,102.731z"/>
<g style="opacity:0.3;">
	<path style="fill:#663C1D;" d="M186.509,231.521l-50.096-63.009l-84.619,60.625c0,0,131.802,8.094,206.388,180.082l0.164,0.051
		C232.565,298.729,186.509,231.521,186.509,231.521z"/>
	<path style="fill:#663C1D;" d="M258.511,409.973c0.063-0.199,0.119-0.397,0.182-0.595l-0.348-0.108
		C258.4,409.505,258.457,409.737,258.511,409.973z"/>
	<path style="fill:#663C1D;" d="M258.182,409.219c0.11,0.252,0.221,0.5,0.329,0.754c-0.055-0.236-0.111-0.468-0.166-0.703
		L258.182,409.219z"/>
</g>
<path style="fill:#663C1D;" d="M300.039,435.72h-90.184c-7.78,0-14.147-6.366-14.147-14.147l0,0c0-7.78,6.366-14.147,14.147-14.147
	h90.184c7.78,0,14.147,6.366,14.147,14.147l0,0C314.186,429.354,307.82,435.72,300.039,435.72z"/>
<path style="fill:#56361D;" d="M302.893,407.762c0.215,0.975,0.335,1.984,0.335,3.02l0,0c0,7.78-6.366,14.147-14.147,14.147h-90.184
	c-1.037,0-2.046-0.121-3.021-0.335c1.394,6.34,7.067,11.126,13.811,11.126h90.184c7.78,0,14.147-6.366,14.147-14.147l0,0
	C314.018,414.829,309.234,409.156,302.893,407.762z"/>
<rect x="144.192" y="435.717" style="fill:#663C1D;" width="221.505" height="57.179"/>
<polygon style="fill:#EEBF00;" points="81.55,84.081 120.414,23.168 158.468,84.593 228.41,102.731 181.751,157.903 
	186.112,230.027 119.223,202.701 51.976,229.137 57.295,157.077 11.372,101.291 "/>
<path style="opacity:0.27;fill:#663C1D;enable-background:new    ;" d="M463.768,229.137l-75.728-54.255l-58.408,55.146
	c0,0-48.457,98.177-71.511,177.498C332.835,237.181,463.768,229.137,463.768,229.137z"/>
<polygon style="fill:#EEBF00;" points="434.197,84.081 395.331,23.168 357.279,84.593 287.337,102.731 333.996,157.903 
	329.634,230.027 396.524,202.701 463.771,229.137 458.451,157.077 504.373,101.291 "/>
<path style="fill:#56361D;" d="M339.753,435.72v11.206c0,9.6-7.783,17.383-17.383,17.383H144.193v28.589h195.56h25.948v-28.589
	V435.72H339.753z"/>
<g>
	<polygon style="opacity:0.42;fill:#FFEB99;enable-background:new    ;" points="158.286,84.593 143.25,60.322 52.319,151.252 
		57.113,157.077 51.794,229.137 63.563,224.51 194.174,93.9 	"/>
	<polygon style="opacity:0.38;fill:#FFEB99;enable-background:new    ;" points="434.251,84.122 418.259,59.058 327.326,149.993 
		334.05,157.943 329.688,230.068 337.095,227.042 471.025,93.113 	"/>
</g>
<path d="M511.611,91.768c-0.827-2.488-2.874-4.378-5.421-5.002l-67.209-16.481l-37.22-58.337c-1.41-2.211-3.883-3.529-6.48-3.524
	c-2.622,0.018-5.052,1.381-6.433,3.61L352.404,70.86l-66.982,17.372c-0.052,0.013-0.101,0.036-0.153,0.05
	c-0.213,0.06-0.422,0.129-0.629,0.206c-0.078,0.029-0.158,0.058-0.235,0.09c-0.257,0.107-0.51,0.225-0.756,0.36
	c-0.009,0.005-0.018,0.009-0.027,0.014c-0.26,0.145-0.511,0.309-0.756,0.485c-0.049,0.036-0.095,0.074-0.143,0.111
	c-0.185,0.141-0.365,0.291-0.539,0.45c-0.06,0.055-0.119,0.111-0.178,0.168c-0.157,0.154-0.306,0.315-0.45,0.484
	c-0.053,0.061-0.107,0.12-0.158,0.183c-0.174,0.217-0.34,0.442-0.492,0.682c-0.008,0.013-0.018,0.025-0.027,0.039
	c-0.001,0.001-0.001,0.002-0.002,0.003c-0.608,0.968-12.703,20.434-24.872,53.787c-12.129-33.263-24.214-52.721-24.884-53.787
	c-0.001-0.001-0.001-0.002-0.002-0.003c-0.008-0.013-0.018-0.024-0.026-0.038c-0.154-0.24-0.319-0.468-0.493-0.684
	c-0.049-0.061-0.102-0.117-0.153-0.176c-0.146-0.172-0.299-0.336-0.458-0.492c-0.056-0.055-0.113-0.109-0.171-0.162
	c-0.177-0.163-0.36-0.315-0.549-0.459c-0.045-0.034-0.087-0.07-0.133-0.103c-0.245-0.177-0.497-0.342-0.76-0.488
	c-0.008-0.004-0.016-0.008-0.024-0.012c-0.246-0.136-0.5-0.254-0.759-0.361c-0.078-0.033-0.157-0.061-0.236-0.092
	c-0.204-0.077-0.412-0.145-0.622-0.204c-0.054-0.015-0.105-0.038-0.159-0.052l-66.984-17.372L123.15,12.034
	c-1.381-2.228-3.81-3.592-6.433-3.61c-2.64-0.028-5.069,1.314-6.481,3.524L73.018,70.284L5.81,86.766
	c-2.547,0.624-4.594,2.514-5.421,5.002s-0.317,5.228,1.349,7.252l43.98,53.425l-5.093,69.012c-0.001,0.013,0.001,0.026,0,0.04
	c-0.001,0.018-0.005,0.036-0.006,0.054c-0.017,0.285-0.016,0.565-0.003,0.844c0.003,0.059,0.011,0.116,0.016,0.175
	c0.017,0.243,0.045,0.482,0.084,0.719c0.013,0.079,0.029,0.158,0.046,0.237c0.045,0.224,0.1,0.444,0.164,0.661
	c0.02,0.068,0.039,0.136,0.061,0.204c0.091,0.276,0.191,0.545,0.311,0.806c0.002,0.004,0.003,0.007,0.004,0.011
	c0.123,0.267,0.264,0.526,0.417,0.776c0.04,0.066,0.084,0.129,0.127,0.193c0.117,0.179,0.241,0.354,0.372,0.523
	c0.058,0.074,0.116,0.147,0.176,0.22c0.148,0.177,0.305,0.347,0.47,0.509c0.043,0.043,0.081,0.087,0.125,0.128
	c0.215,0.203,0.441,0.393,0.678,0.569c0.014,0.01,0.025,0.022,0.04,0.033c0.035,0.025,0.073,0.045,0.109,0.07
	c0.198,0.141,0.403,0.273,0.614,0.395c0.064,0.037,0.128,0.073,0.193,0.108c0.223,0.12,0.451,0.229,0.687,0.327
	c0.04,0.016,0.078,0.036,0.118,0.052c0.281,0.111,0.568,0.207,0.865,0.285c0.026,0.007,0.053,0.01,0.078,0.017
	c0.252,0.063,0.509,0.113,0.772,0.15c0.093,0.013,0.186,0.021,0.28,0.032c0.114,0.012,0.226,0.032,0.341,0.039
	c0.313,0.019,31.783,2.182,72.164,24.696c37.182,20.73,89.139,63.292,126.695,148.525h-36.766c-12.005,0-21.773,9.767-21.773,21.772
	c0,2.271,0.352,4.46,1,6.52h-44.889c-4.212,0-7.627,3.414-7.627,7.626v57.178c0,4.213,3.415,7.627,7.627,7.627h221.508
	c4.212,0,7.626-3.414,7.626-7.627v-57.178c0-4.213-3.415-7.626-7.626-7.626h-44.889c0.648-2.06,1-4.25,1-6.52
	c0-12.005-9.767-21.772-21.773-21.772h-34.662c37.369-84.808,88.997-127.329,125.935-148.1
	c40.495-22.771,72.62-25.101,72.939-25.122c0.11-0.007,0.217-0.025,0.325-0.038c0.097-0.01,0.192-0.019,0.289-0.033
	c0.249-0.036,0.494-0.084,0.734-0.143c0.039-0.009,0.077-0.015,0.116-0.025c0.294-0.077,0.581-0.173,0.859-0.283
	c0.04-0.016,0.078-0.036,0.118-0.052c0.235-0.098,0.463-0.206,0.685-0.325c0.066-0.036,0.132-0.073,0.197-0.111
	c0.208-0.121,0.411-0.25,0.606-0.389c0.037-0.026,0.076-0.046,0.113-0.072c0.015-0.011,0.027-0.024,0.043-0.036
	c0.236-0.177,0.463-0.366,0.676-0.568c0.043-0.04,0.08-0.083,0.121-0.125c0.166-0.164,0.323-0.335,0.473-0.513
	c0.06-0.072,0.118-0.145,0.176-0.22c0.131-0.168,0.254-0.342,0.37-0.521c0.043-0.066,0.088-0.129,0.129-0.196
	c0.153-0.25,0.294-0.507,0.417-0.775l0,0c0.122-0.264,0.224-0.537,0.315-0.816c0.022-0.067,0.041-0.135,0.061-0.203
	c0.064-0.217,0.119-0.437,0.164-0.661c0.016-0.079,0.033-0.158,0.046-0.238c0.04-0.236,0.067-0.474,0.084-0.716
	c0.004-0.059,0.013-0.117,0.016-0.177c0.013-0.278,0.014-0.559-0.003-0.843c-0.001-0.018-0.005-0.036-0.006-0.054
	c-0.001-0.013,0.001-0.026,0-0.04l-5.094-69.012l43.98-53.425C511.928,96.995,512.438,94.256,511.611,91.768z M288.613,108.932
	l37.587,44.443l-4.094,67.697c-3.83,5.762-22.44,34.79-41.751,82.544c2.216-48.087-4.594-89.739-12.687-120.822
	c-1.193-4.58-2.432-8.997-3.698-13.278C272.698,141.236,282.69,120.185,288.613,108.932z M189.895,221.074l-4.094-67.697
	l37.583-44.44c7.089,13.479,20.024,41.006,29.667,78.265c11.415,44.11,20.142,110.363,2.192,185.967
	C230.53,284.283,195.331,229.251,189.895,221.074z M21.224,98.691L79.62,84.371c1.906-0.468,3.558-1.651,4.614-3.305l32.341-50.688
	l31.665,51.113c1.033,1.668,2.669,2.873,4.569,3.366l58.201,15.094l-38.826,45.91c-1.267,1.498-1.908,3.426-1.79,5.385l3.629,60.017
	l-55.66-22.739c-0.924-0.377-1.905-0.566-2.884-0.566c-0.947,0-1.893,0.176-2.79,0.529L56.73,210.484l4.426-59.963
	c0.144-1.956-0.471-3.894-1.717-5.408L21.224,98.691z M127.354,241.004c-20.111-11.212-38.167-17.721-51.902-21.493l39.969-15.713
	l61.324,25.053c1.702,2.531,27.612,41.655,50.742,107.072c-9.479-14.205-19.706-27.35-30.649-39.335
	C176.047,273.819,152.669,255.119,127.354,241.004z M358.075,488.321H151.819v-41.924h58.036h90.184h58.035v41.924H358.075z
	 M306.559,424.624c0,3.595-2.925,6.52-6.52,6.52h-90.184c-3.595,0-6.52-2.926-6.52-6.52s2.925-6.519,6.52-6.519h90.184
	C303.635,418.104,306.559,421.029,306.559,424.624z M384.645,241.004c-25.315,14.114-48.693,32.815-69.484,55.585
	c-10.935,11.977-21.155,25.111-30.628,39.303c23.098-65.274,48.993-104.464,50.721-107.041l61.324-25.053l39.969,15.713
	C422.813,223.282,404.756,229.791,384.645,241.004z M452.563,145.112c-1.247,1.514-1.862,3.452-1.717,5.408l4.426,59.963
	l-55.957-21.998c-1.826-0.719-3.859-0.704-5.675,0.038l-55.66,22.739l3.629-60.017c0.118-1.96-0.523-3.887-1.79-5.385L300.993,99.95
	l58.201-15.094c1.9-0.492,3.536-1.698,4.569-3.366l31.665-51.114l32.341,50.689c1.056,1.653,2.708,2.837,4.614,3.305l58.396,14.321
	L452.563,145.112z"/>
</svg>