<svg class="svg-icon" style="width: 1em; height: 1em;vertical-align: middle;fill: currentColor;overflow: hidden;" viewBox="0 0 1024 1024" version="1.1" xmlns="http://www.w3.org/2000/svg"><path d="M411.1 466.2c77.1 0 139.6-61.2 139.6-136.7V284c0-75.5-62.5-136.7-139.6-136.7S271.5 208.5 271.5 284v45.5c0 75.5 62.5 136.7 139.6 136.7z m228.8 123.5C568.8 561.5 491.7 546 411.1 546c-80.5 0-157.4 15.5-228.4 43.6-41.5 19.1-70.7 62-70.7 112.4v56.2c0 37.1 23.8 68.3 56.2 78.5C246.3 855 327.6 865 411.1 865c83.4 0 164.6-10 242.6-28.4 32.6-10.1 56.5-41.2 56.5-78.6v-56.2c0-50.1-28.9-93-70.3-112.1z m170-223.2v-99.7H750v99.7h-99.7v59.8H750V526h59.8v-99.7h99.7v-59.8h-99.6z"  /></svg>