<svg xmlns="http://www.w3.org/2000/svg" width="112" height="213" viewBox="0 0 112 213" fill="none">
  <path d="M0 0H112V213H4C1.79086 213 0 211.209 0 209V0Z" fill="#F0A03D"/>
  <path d="M79.0666 73.0843C77.7858 74.0728 76.5051 75.1769 75.3402 76.455C74.0595 77.7332 72.9531 79.1268 71.9054 80.6959L69.9257 75.6405L67.713 69.772L56.9998 42L46.2309 69.889L44.0168 75.5835L42.0957 80.6374C41.1205 79.1449 40.01 77.7449 38.7781 76.455C37.556 75.1184 36.2167 73.9558 34.8774 72.9102C27.6576 67.2172 19.623 65.1245 19.623 65.1245C20.4393 65.9376 21.1368 66.9262 21.7771 68.0873C22.5933 69.4824 23.2908 71.1671 23.874 72.9102L23.9898 73.2013C27.1344 83.0196 27.1344 96.0348 27.1344 96.0348L86.8095 96.1518C86.8095 96.1518 86.8681 82.3806 90.3029 72.5622C90.826 70.9931 91.4092 69.598 92.1653 68.3198L92.2826 68.0873C92.8643 67.0417 93.5633 66.0546 94.3209 65.2986C94.3209 65.2986 86.2849 67.3912 79.0666 73.0843ZM56.9808 82.2197C58.4095 82.2197 59.5686 84.2788 59.5686 86.8189C59.5686 89.359 58.4095 91.4196 56.9808 91.4196C55.552 91.4196 54.3929 89.3591 54.3929 86.8189C54.3929 84.2787 55.552 82.2197 56.9808 82.2197ZM35.0136 82.3572C36.2314 82.1349 37.5912 83.979 38.0513 86.4781C38.5114 88.9759 37.8975 91.1826 36.6798 91.4064C35.462 91.6286 34.1022 89.7846 33.6421 87.2854C33.182 84.7877 33.7959 82.581 35.0136 82.3572ZM77.0942 91.4444C77.0725 91.4429 77.051 91.44 77.0297 91.4356C75.9014 91.2294 75.3607 89.0359 75.8208 86.5381C76.2809 84.0389 77.5675 82.1817 78.6943 82.3879C79.8212 82.5941 80.3634 84.7877 79.9032 87.2854C79.4812 89.5755 78.3661 91.3274 77.314 91.4444C77.241 91.4532 77.1672 91.4532 77.0942 91.4444Z" fill="white"/>
  <path d="M79.06 160.784C53.22 160.866 42.1244 123.059 42.1244 123.059C34.7302 134.442 19.9287 134.482 19.9287 134.482C34.7244 126.867 27.1016 104 27.1016 104L38.6237 104.001L78.1105 104.006H86.8587C72.0571 122.987 93.8557 134.284 93.8557 134.284C79.0864 134.324 68.0098 122.996 68.0098 122.996C60.6083 149.505 79.06 160.784 79.06 160.784Z" fill="white"/>
  <path d="M12.2222 136.358L14.8582 137.19L16.4772 139.473L17.2931 136.776L19.5273 135.117L16.8917 134.285L15.2724 132L14.4565 134.699L12.2222 136.358Z" fill="white"/>
  <path d="M79.4941 161.24L80.9362 163.63L80.6849 166.433L83.0259 164.948L85.7634 165.193L84.3222 162.803L84.5738 160L82.2324 161.486L79.4941 161.24Z" fill="white"/>
  <path d="M94.6284 134.64L97.3226 135.198L99.1439 137.303L99.7003 134.539L101.762 132.664L99.0678 132.105L97.2461 130L96.6899 132.764L94.6284 134.64Z" fill="white"/>
</svg>