<?xml version="1.0" encoding="UTF-8" standalone="no" ?>
<!DOCTYPE svg PUBLIC "-//W3C//DTD SVG 1.1//EN" "http://www.w3.org/Graphics/SVG/1.1/DTD/svg11.dtd">
<svg xmlns="http://www.w3.org/2000/svg" xmlns:xlink="http://www.w3.org/1999/xlink" version="1.1" width="1080" height="1080" viewBox="0 0 1080 1080" xml:space="preserve">
<desc>Created with Fabric.js 5.2.4</desc>
<defs>
</defs>
<g transform="matrix(1 0 0 1 540 540)" id="092829bd-71f8-42bb-baa0-3c86d58db2c7"  >
</g>
<g transform="matrix(1 0 0 1 540 540)" id="b093a5dd-87ec-4fe4-a642-a68448aea0a9"  >
<rect style="stroke: none; stroke-width: 1; stroke-dasharray: none; stroke-linecap: butt; stroke-dashoffset: 0; stroke-linejoin: miter; stroke-miterlimit: 4; fill: rgb(255,255,255); fill-rule: nonzero; opacity: 1; visibility: hidden;" vector-effect="non-scaling-stroke"  x="-540" y="-540" rx="0" ry="0" width="1080" height="1080" />
</g>
<g transform="matrix(13.06 0 0 9.64 853.35 540)"  >
<g style=""   >
		<g transform="matrix(1 0 0 1 0 0)"  >
<path style="stroke: none; stroke-width: 1; stroke-dasharray: none; stroke-linecap: butt; stroke-dashoffset: 0; stroke-linejoin: miter; stroke-miterlimit: 4; fill: rgb(240,160,61); fill-rule: nonzero; opacity: 1;" vector-effect="non-scaling-stroke"  transform=" translate(-56, -106.5)" d="M 0 0 L 112 0 L 112 213 L 4 213 C 1.79086 213 0 211.209 0 209 L 0 0 Z" stroke-linecap="round" />
</g>
		<g transform="matrix(1 0 0 1 0.97 -37.42)"  >
<path style="stroke: none; stroke-width: 1; stroke-dasharray: none; stroke-linecap: butt; stroke-dashoffset: 0; stroke-linejoin: miter; stroke-miterlimit: 4; fill: rgb(255,255,255); fill-rule: nonzero; opacity: 1;" vector-effect="non-scaling-stroke"  transform=" translate(-56.97, -69.08)" d="M 79.0666 73.0843 C 77.7858 74.0728 76.5051 75.1769 75.3402 76.455 C 74.0595 77.7332 72.9531 79.1268 71.9054 80.6959 L 69.9257 75.6405 L 67.713 69.772 L 56.9998 42 L 46.2309 69.889 L 44.0168 75.5835 L 42.0957 80.6374 C 41.1205 79.1449 40.01 77.7449 38.7781 76.455 C 37.556 75.1184 36.2167 73.9558 34.8774 72.9102 C 27.6576 67.2172 19.623 65.1245 19.623 65.1245 C 20.4393 65.9376 21.1368 66.9262 21.7771 68.0873 C 22.5933 69.4824 23.2908 71.1671 23.874 72.9102 L 23.9898 73.2013 C 27.1344 83.0196 27.1344 96.0348 27.1344 96.0348 L 86.8095 96.1518 C 86.8095 96.1518 86.8681 82.3806 90.3029 72.5622 C 90.826 70.9931 91.4092 69.598 92.1653 68.3198 L 92.2826 68.0873 C 92.8643 67.0417 93.5633 66.0546 94.3209 65.2986 C 94.3209 65.2986 86.2849 67.3912 79.0666 73.0843 Z M 56.9808 82.2197 C 58.4095 82.2197 59.5686 84.2788 59.5686 86.8189 C 59.5686 89.359 58.4095 91.4196 56.9808 91.4196 C 55.552 91.4196 54.3929 89.3591 54.3929 86.8189 C 54.3929 84.2787 55.552 82.2197 56.9808 82.2197 Z M 35.0136 82.3572 C 36.2314 82.1349 37.5912 83.979 38.0513 86.4781 C 38.5114 88.9759 37.8975 91.1826 36.6798 91.4064 C 35.462 91.6286 34.1022 89.7846 33.6421 87.2854 C 33.182 84.7877 33.7959 82.581 35.0136 82.3572 Z M 77.0942 91.4444 C 77.0725 91.4429 77.051 91.44 77.0297 91.4356 C 75.9014 91.2294 75.3607 89.0359 75.8208 86.5381 C 76.2809 84.0389 77.5675 82.1817 78.6943 82.3879 C 79.8212 82.5941 80.3634 84.7877 79.9032 87.2854 C 79.4812 89.5755 78.3661 91.3274 77.314 91.4444 C 77.241 91.4532 77.1672 91.4532 77.0942 91.4444 Z" stroke-linecap="round" />
</g>
		<g transform="matrix(1 0 0 1 0.89 25.89)"  >
<path style="stroke: none; stroke-width: 1; stroke-dasharray: none; stroke-linecap: butt; stroke-dashoffset: 0; stroke-linejoin: miter; stroke-miterlimit: 4; fill: rgb(255,255,255); fill-rule: nonzero; opacity: 1;" vector-effect="non-scaling-stroke"  transform=" translate(-56.89, -132.39)" d="M 79.06 160.784 C 53.22 160.866 42.1244 123.059 42.1244 123.059 C 34.7302 134.442 19.9287 134.482 19.9287 134.482 C 34.7244 126.867 27.1016 104 27.1016 104 L 38.6237 104.001 L 78.1105 104.006 L 86.8587 104.006 C 72.0571 122.987 93.8557 134.284 93.8557 134.284 C 79.0864 134.324 68.0098 122.996 68.0098 122.996 C 60.6083 149.505 79.06 160.784 79.06 160.784 Z" stroke-linecap="round" />
</g>
		<g transform="matrix(1 0 0 1 -40.13 29.24)"  >
<path style="stroke: none; stroke-width: 1; stroke-dasharray: none; stroke-linecap: butt; stroke-dashoffset: 0; stroke-linejoin: miter; stroke-miterlimit: 4; fill: rgb(255,255,255); fill-rule: nonzero; opacity: 1;" vector-effect="non-scaling-stroke"  transform=" translate(-15.87, -135.74)" d="M 12.2222 136.358 L 14.8582 137.19 L 16.4772 139.473 L 17.2931 136.776 L 19.5273 135.117 L 16.8917 134.285 L 15.2724 132 L 14.4565 134.699 L 12.2222 136.358 Z" stroke-linecap="round" />
</g>
		<g transform="matrix(1 0 0 1 26.63 56.72)"  >
<path style="stroke: none; stroke-width: 1; stroke-dasharray: none; stroke-linecap: butt; stroke-dashoffset: 0; stroke-linejoin: miter; stroke-miterlimit: 4; fill: rgb(255,255,255); fill-rule: nonzero; opacity: 1;" vector-effect="non-scaling-stroke"  transform=" translate(-82.63, -163.22)" d="M 79.4941 161.24 L 80.9362 163.63 L 80.6849 166.433 L 83.0259 164.948 L 85.7634 165.193 L 84.3222 162.803 L 84.5738 160 L 82.2324 161.486 L 79.4941 161.24 Z" stroke-linecap="round" />
</g>
		<g transform="matrix(1 0 0 1 42.2 27.15)"  >
<path style="stroke: none; stroke-width: 1; stroke-dasharray: none; stroke-linecap: butt; stroke-dashoffset: 0; stroke-linejoin: miter; stroke-miterlimit: 4; fill: rgb(255,255,255); fill-rule: nonzero; opacity: 1;" vector-effect="non-scaling-stroke"  transform=" translate(-98.2, -133.65)" d="M 94.6284 134.64 L 97.3226 135.198 L 99.1439 137.303 L 99.7003 134.539 L 101.762 132.664 L 99.0678 132.105 L 97.2461 130 L 96.6899 132.764 L 94.6284 134.64 Z" stroke-linecap="round" />
</g>
</g>
</g>
</svg>