<svg xmlns:xlink="http://www.w3.org/1999/xlink" xmlns="http://www.w3.org/2000/svg" id="Calque_1" data-name="Calque 1" viewBox="0 0 39.6 39.6" width="39.6"  height="39.6" >
	<path d="M21.32,2a19.8,19.8,0,1,0,19.8,19.8A19.8,19.8,0,0,0,21.32,2Zm.58,38.4V39.2H20.7A17.44,17.44,0,0,1,4,22.4V21.2H2.7a18.67,18.67,0,0,1,18-18V4.4h1.2A17.27,17.27,0,0,1,38.6,21.1v1.2h1.2A18.46,18.46,0,0,1,21.9,40.4Z" transform="translate(-1.52 -2)"/>
	<path d="M25.9,24.1a4.82,4.82,0,0,1-1.4,3.7,4.34,4.34,0,0,1-3.4,1.3,4.46,4.46,0,0,1-4.7-4.7,4.22,4.22,0,0,1,2.8-4.1,21.31,21.31,0,0,1,2.8-.9,2.81,2.81,0,0,0,2.1-2.9,2.85,2.85,0,0,0-.9-2.3,3.12,3.12,0,0,0-2-.7,3,3,0,0,0-2.1.7,3.28,3.28,0,0,0-.9,2.2,6.75,6.75,0,0,0,.2,1.4H16a7.08,7.08,0,0,1-.1-1.5,5,5,0,0,1,1.3-3.6,5.11,5.11,0,0,1,4-1.5,5.11,5.11,0,0,1,3.9,1.4,5.26,5.26,0,0,1,1.5,3.9,4.8,4.8,0,0,1-1.1,3.2A7,7,0,0,1,23,21.4c-.8.3-1.6.5-2.4.8A2.4,2.4,0,0,0,19,24.5a2,2,0,0,0,.7,1.7,2.17,2.17,0,0,0,1.6.6,2,2,0,0,0,1.6-.6,3.29,3.29,0,0,0,.8-2.2h2.2Zm-4.7,6.7a1.7,1.7,0,1,1-1.7,1.7A1.69,1.69,0,0,1,21.2,30.8Z" transform="translate(-1.52 -2)"/>
</svg>