<svg width="76" height="135" viewBox="0 0 76 135" fill="none" xmlns="http://www.w3.org/2000/svg">
<path d="M2.82843 99.9437C1.26633 98.3816 1.26633 95.8489 2.82843 94.2868L37.9175 59.1977L72.9738 94.254C74.5359 95.8161 74.5359 98.3487 72.9738 99.9108L44.9557 127.929C41.0505 131.834 34.7189 131.834 30.8136 127.929L2.82843 99.9437Z" fill="#1A5710"/>
<path d="M0 10C0 4.47715 4.47715 0 10 0H66.9376C71.9081 0 75.9376 4.02944 75.9376 9V93.125C75.9376 98.6478 71.4604 103.125 65.9376 103.125H10C4.47716 103.125 0 98.6478 0 93.125V10Z" fill="#1A5710"/>
<path d="M47.4724 51.4191C47.4724 51.4191 48.0682 47.6863 50.3404 46.8904C52.6125 46.0946 54.088 45.6772 54.6123 45.4853C55.2237 45.2616 56.3391 44.9049 57.7933 44.036C58.879 43.3873 60.7408 41.9415 61.5 41.0314C61.5 41.0314 60.2382 44.893 58.853 46.2024C57.4679 47.5117 55.4329 48.094 54.7462 48.3148C54.0595 48.5356 51.1764 49.061 50.5015 49.3608C49.8266 49.6606 48.9354 50.0142 47.4724 51.4191Z" fill="white"/>
<path d="M45.9893 56.5003C45.9893 56.5003 46.4743 52.946 50.8383 51.5838L54.5426 50.558C54.5426 50.558 58.9665 49.0172 59.9129 47.4635C59.9129 47.4635 58.7978 50.9499 56.4502 52.3165C55.2256 53.1182 51.4073 53.699 50.1454 54.0982C48.8834 54.4974 47.2744 55.4328 45.9893 56.5003Z" fill="white"/>
<path d="M45.3508 60.7869C45.3508 60.7869 45.7867 58.3178 48.3984 57.32C51.0083 56.3228 53.0927 56.0029 54.0845 55.6713C55.0764 55.3396 57.759 54.0001 58.4318 52.959C58.4318 52.959 57.4845 56.2014 55.0449 57.613C53.1705 58.667 49.6205 58.9156 48.3934 59.3058C47.1648 59.6965 46.1977 60.372 45.3508 60.7869Z" fill="white"/>
<path d="M26.5677 70.9554C27.866 67.8645 29.5808 68.2847 32.1624 67.6481C36.6753 66.5354 39.8742 65.3069 42.239 63.0116C44.3408 60.9716 44.4309 56.2433 44.5207 55.0447C44.5207 55.0447 44.9547 45.231 48.6794 44.1835C52.4041 43.1361 53.8481 42.6163 55.9289 41.7989C58.2051 40.9047 60.1398 39.0246 61.3508 34.9608C61.3508 34.9608 59.4958 38.2567 55.8298 39.9907C53.7776 40.9613 49.3761 42.4035 47.443 42.9471C43.7183 43.9946 43.0566 54.8515 43.0566 54.8515C42.8643 56.8478 43.0031 60.2436 40.8394 62.0364C38.3018 64.139 35.4388 65.299 30.926 66.4117C28.3444 67.0483 26.7223 67.6481 26.5987 70.9246" fill="white"/>
<path d="M18.6893 58.6147C18.8203 58.5996 18.9526 58.6275 19.0663 58.6941C19.3524 58.8571 19.6351 58.783 19.8953 58.5874C20.4366 58.1822 20.8794 57.2547 21.0532 56.8531C21.0778 56.7954 21.1144 56.7436 21.1604 56.7011C21.2065 56.6585 21.2611 56.6262 21.3205 56.6062C23.2329 55.9751 25.9542 53.138 25.9542 53.138C25.9542 53.138 28.5395 56.08 27.692 58.7469H27.6913C27.5258 59.2597 27.2493 59.7298 26.8815 60.1236C21.5032 66.4292 25.0269 69.7675 25.0269 69.7675C25.0269 67.7274 24.3469 64.9456 32.2598 63.2146C40.0991 61.4997 40.5759 58.3662 40.5759 57.6373C40.5759 57.3482 40.5672 57.0611 40.5497 56.7762C40.493 55.8428 40.2406 54.5218 39.877 53.6604C38.8969 51.3381 38.4258 49.3204 36.4264 47.8395C35.9235 47.507 35.3994 47.2078 34.8575 46.9437C34.9366 46.9499 35.0157 46.9567 35.0942 46.9654C35.9794 47.0537 36.8541 47.227 37.7061 47.4828C36.1357 45.8684 34.1988 44.6569 32.0599 43.9513C29.9211 43.2457 27.6435 43.0669 25.4207 43.4299C23.78 40.4088 21.8877 40.4032 21.8741 40.4032C23.296 41.5778 22.8632 43.6797 22.8632 43.6797C22.3687 42.196 21.0087 41.5778 21.0087 41.5778C21.2504 42.3833 21.1249 43.9492 21.008 44.9433C20.945 45.4755 20.885 45.8433 20.885 45.8433C18.6595 45.8433 16.9286 50.2943 16.9286 50.2943C17.0368 50.303 17.1388 50.3085 17.2352 50.3104C17.7372 50.3234 18.0926 50.2579 18.3387 50.1732C18.6966 50.0508 18.8258 49.8882 18.8431 49.8647C18.3416 50.753 18.0572 51.7129 17.9144 52.308C17.814 52.7294 17.6553 53.1347 17.4428 53.5122L16.446 55.2757C16.2451 55.6291 16.1417 56.0296 16.1464 56.436C16.1798 58.7354 18.0436 58.6972 18.6893 58.6147Z" fill="white"/>
<path d="M16.4529 32.7184V28.684L16.9791 31.7536L16.4529 32.7184Z" fill="white"/>
<path d="M16.7622 32.761L17.8146 31.7086L17.5515 32.4102L16.7622 32.761Z" fill="white"/>
<path d="M16.1487 32.9812H12.1143L15.1839 32.4549L16.1487 32.9812Z" fill="white"/>
<path d="M16.1916 32.6745L15.1392 31.6221L15.8408 31.8852L16.1916 32.6745Z" fill="white"/>
<path d="M16.4119 33.2884V37.3228L15.8857 34.2531L16.4119 33.2884Z" fill="white"/>
<path d="M16.1053 33.2438L15.0529 34.2962L15.316 33.5946L16.1053 33.2438Z" fill="white"/>
<path d="M16.7167 33.0245H20.751L17.6814 33.5507L16.7167 33.0245Z" fill="white"/>
<path d="M16.6724 33.3318L17.7248 34.3843L17.0232 34.1212L16.6724 33.3318Z" fill="white"/>
<path d="M9 28.5385C9 28.5385 10.3234 43.2256 11.8846 51.6154C12.7279 56.147 13.6921 60.4357 14.7279 64.4675C16.5952 71.7362 20.5724 78.2988 26.2061 83.2569C26.2399 83.2867 34.3138 89.7518 37.8461 92C41.3785 89.7518 49.4523 83.2867 49.4861 83.2569C55.1198 78.2988 59.0971 71.7362 60.9644 64.4675C62.0001 60.4357 62.9643 56.147 63.8076 51.6154C65.2271 43.9873 66.1904 36.2813 66.6922 28.5385C57.6721 23.345 47.9596 19.46 37.8461 17C27.7326 19.46 18.0201 23.345 9 28.5385Z" stroke="white" stroke-width="2" stroke-miterlimit="10"/>
</svg>
