<svg xmlns="http://www.w3.org/2000/svg" xmlns:xlink="http://www.w3.org/1999/xlink" version="1.1" x="0px" y="0px" viewBox="0 0 100 80    " style="enable-background:new 0 0 100 100;" xml:space="preserve"><path d="M39,36.7c0.1,0.4,0.6,0.7,1,0.7c0.9-0.1,1.9-0.1,2.8-0.1c1.5,0,2.9,0.1,4.3,0.3c0.6,0.1,1.2-0.4,1.2-1v-6.9  c0-0.6-0.5-1-1-1c-3.2,0.1-6.4,0.7-9.3,1.6c-0.5,0.2-0.8,0.7-0.6,1.3L39,36.7z"/><path d="M49.8,38.1c2.1,0.5,4.2,1.3,6.2,2.2c0.5,0.3,1.2,0,1.4-0.6l2.7-8.2c0.2-0.5-0.1-1.1-0.6-1.3  c-3-0.9-6.1-1.5-9.3-1.6c-0.6,0-1,0.4-1,1v7.5C49.1,37.6,49.4,38,49.8,38.1z"/><path d="M78.8,46.3l-8.4,6.1c-0.4,0.3-0.5,0.8-0.3,1.3c0.9,1.6,1.6,3.2,2.2,4.9c0.2,0.5,0.7,0.8,1.2,0.6l9.8-3.2  c0.5-0.2,0.8-0.7,0.6-1.3c-1-2.9-2.3-5.7-3.8-8.2C79.9,46.1,79.2,46,78.8,46.3z"/><path d="M30.2,40.2c2.3-1.1,4.7-2,7.2-2.5c0.6-0.1,1-0.7,0.8-1.3l-1.5-4.7c-0.2-0.5-0.8-0.8-1.3-0.6  c-2.9,1.2-5.7,2.7-8.2,4.6c-0.4,0.3-0.5,0.9-0.2,1.4l2,2.8C29.3,40.3,29.8,40.4,30.2,40.2z"/><path d="M60.8,31.8L58,40.4c-0.1,0.4,0,0.9,0.4,1.1c1.7,1,3.4,2.2,4.9,3.6c0.4,0.4,1.1,0.3,1.5-0.1l5.7-7.9  c0.3-0.4,0.2-1.1-0.2-1.4c-2.5-1.9-5.3-3.4-8.2-4.6C61.5,31,60.9,31.3,60.8,31.8z"/><path d="M65.2,47c1.3,1.4,2.5,2.8,3.5,4.4c0.3,0.5,0.9,0.6,1.4,0.3l8.3-6c0.4-0.3,0.5-0.9,0.2-1.4  c-1.8-2.5-3.9-4.8-6.2-6.8c-0.4-0.4-1.1-0.3-1.5,0.2L65,45.8C64.8,46.1,64.9,46.7,65.2,47z"/><path d="M21.7,46.5c1.8-2,3.9-3.7,6.2-5.1c0.5-0.3,0.6-1,0.3-1.4l-1.8-2.4c-0.3-0.5-1-0.6-1.5-0.2  c-2.3,2-4.4,4.3-6.2,6.8c-0.3,0.4-0.2,1.1,0.2,1.4l1.4,1C20.8,47,21.4,46.9,21.7,46.5z"/><path d="M14,56l0.5,0.2c0.5,0.2,1-0.1,1.2-0.6c1.1-2.6,2.5-5,4.2-7.1c0.4-0.4,0.3-1.1-0.2-1.4l-1.2-0.8  c-0.5-0.3-1.1-0.2-1.4,0.3c-1.6,2.5-2.9,5.3-3.8,8.2C13.2,55.3,13.5,55.9,14,56z"/><path d="M70.6,61.9c0.4,1.7,0.4,2.7,0.6,4.5c0,0.5,0.5,0.9,1,0.9H87c0.6,0,1-0.5,1-1c-0.1-3.1-0.4-6.7-1.1-9.5  c-0.1-0.6-0.7-0.9-1.3-0.7l-14.3,4.6C70.8,60.9,70.5,61.4,70.6,61.9z"/><path d="M13.1,67.3c0.1-3.2,0.7-6.3,1.7-9.2c0.2-0.5-0.1-1.1-0.6-1.3l-0.3-0.1c-0.5-0.2-1.1,0.1-1.3,0.7  c-0.8,3.2-1.3,6.5-1.3,9.9H13.1z"/><path d="M68.3,64l-24.9-1.4c-0.2,0-0.4,0-0.5,0c-1.4,0.2-2.3,1.5-2.2,2.8c0.2,1.4,1.5,2.3,2.8,2.2L68.3,64  C68.4,64.2,68.4,64,68.3,64z M41.9,66c-0.4-0.6-0.3-1.5,0.4-1.9c0.6-0.4,1.5-0.3,1.9,0.4c0.4,0.6,0.3,1.5-0.4,1.9  C43.2,66.8,42.4,66.6,41.9,66z"/></svg>