<svg width="218" height="72" viewBox="0 0 218 72" fill="none" xmlns="http://www.w3.org/2000/svg">
<path d="M90.4701 47V60.1836H86.017V20.5742H104.591V47H90.4701ZM90.4701 24.9102V42.7812H99.9037V24.9688L90.4701 24.9102ZM114.201 47V20.5742H132.775V47H114.201ZM128.38 24.9102L118.888 24.9688V42.7812H128.38V24.9102ZM160.958 47H156.271V24.793H146.837V47H142.384V20.5742H160.958V47ZM184.455 47H170.685V20.5742H189.142V57.7812H170.568V53.6211H184.455V47ZM184.455 42.6641V24.9102H175.021V42.6641H184.455ZM198.253 37.9473H211.203V47H198.253V37.9473Z" fill="white"/>
<path d="M90.4701 47V46.5H89.9701V47H90.4701ZM90.4701 60.1836V60.6836H90.9701V60.1836H90.4701ZM86.017 60.1836H85.517V60.6836H86.017V60.1836ZM86.017 20.5742V20.0742H85.517V20.5742H86.017ZM104.591 20.5742H105.091V20.0742H104.591V20.5742ZM104.591 47V47.5H105.091V47H104.591ZM90.4701 24.9102L90.4732 24.4102L89.9701 24.407V24.9102H90.4701ZM90.4701 42.7812H89.9701V43.2812H90.4701V42.7812ZM99.9037 42.7812V43.2812H100.404V42.7812H99.9037ZM99.9037 24.9688H100.404V24.4718L99.9068 24.4688L99.9037 24.9688ZM89.9701 47V60.1836H90.9701V47H89.9701ZM90.4701 59.6836H86.017V60.6836H90.4701V59.6836ZM86.517 60.1836V20.5742H85.517V60.1836H86.517ZM86.017 21.0742H104.591V20.0742H86.017V21.0742ZM104.091 20.5742V47H105.091V20.5742H104.091ZM104.591 46.5H90.4701V47.5H104.591V46.5ZM89.9701 24.9102V42.7812H90.9701V24.9102H89.9701ZM90.4701 43.2812H99.9037V42.2812H90.4701V43.2812ZM100.404 42.7812V24.9688H99.4037V42.7812H100.404ZM99.9068 24.4688L90.4732 24.4102L90.467 25.4101L99.9006 25.4687L99.9068 24.4688ZM114.201 47H113.701V47.5H114.201V47ZM114.201 20.5742V20.0742H113.701V20.5742H114.201ZM132.775 20.5742H133.275V20.0742H132.775V20.5742ZM132.775 47V47.5H133.275V47H132.775ZM128.38 24.9102H128.88V24.4071L128.377 24.4102L128.38 24.9102ZM118.888 24.9688L118.885 24.4688L118.388 24.4718V24.9688H118.888ZM118.888 42.7812H118.388V43.2812H118.888V42.7812ZM128.38 42.7812V43.2812H128.88V42.7812H128.38ZM114.701 47V20.5742H113.701V47H114.701ZM114.201 21.0742H132.775V20.0742H114.201V21.0742ZM132.275 20.5742V47H133.275V20.5742H132.275ZM132.775 46.5H114.201V47.5H132.775V46.5ZM128.377 24.4102L118.885 24.4688L118.891 25.4687L128.383 25.4101L128.377 24.4102ZM118.388 24.9688V42.7812H119.388V24.9688H118.388ZM118.888 43.2812H128.38V42.2812H118.888V43.2812ZM128.88 42.7812V24.9102H127.88V42.7812H128.88ZM160.958 47V47.5H161.458V47H160.958ZM156.271 47H155.771V47.5H156.271V47ZM156.271 24.793H156.771V24.293H156.271V24.793ZM146.837 24.793V24.293H146.337V24.793H146.837ZM146.837 47V47.5H147.337V47H146.837ZM142.384 47H141.884V47.5H142.384V47ZM142.384 20.5742V20.0742H141.884V20.5742H142.384ZM160.958 20.5742H161.458V20.0742H160.958V20.5742ZM160.958 46.5H156.271V47.5H160.958V46.5ZM156.771 47V24.793H155.771V47H156.771ZM156.271 24.293H146.837V25.293H156.271V24.293ZM146.337 24.793V47H147.337V24.793H146.337ZM146.837 46.5H142.384V47.5H146.837V46.5ZM142.884 47V20.5742H141.884V47H142.884ZM142.384 21.0742H160.958V20.0742H142.384V21.0742ZM160.458 20.5742V47H161.458V20.5742H160.458ZM184.455 47H184.955V46.5H184.455V47ZM170.685 47H170.185V47.5H170.685V47ZM170.685 20.5742V20.0742H170.185V20.5742H170.685ZM189.142 20.5742H189.642V20.0742H189.142V20.5742ZM189.142 57.7812V58.2812H189.642V57.7812H189.142ZM170.568 57.7812H170.068V58.2812H170.568V57.7812ZM170.568 53.6211V53.1211H170.068V53.6211H170.568ZM184.455 53.6211V54.1211H184.955V53.6211H184.455ZM184.455 42.6641V43.1641H184.955V42.6641H184.455ZM184.455 24.9102H184.955V24.4102H184.455V24.9102ZM175.021 24.9102V24.4102H174.521V24.9102H175.021ZM175.021 42.6641H174.521V43.1641H175.021V42.6641ZM184.455 46.5H170.685V47.5H184.455V46.5ZM171.185 47V20.5742H170.185V47H171.185ZM170.685 21.0742H189.142V20.0742H170.685V21.0742ZM188.642 20.5742V57.7812H189.642V20.5742H188.642ZM189.142 57.2812H170.568V58.2812H189.142V57.2812ZM171.068 57.7812V53.6211H170.068V57.7812H171.068ZM170.568 54.1211H184.455V53.1211H170.568V54.1211ZM184.955 53.6211V47H183.955V53.6211H184.955ZM184.955 42.6641V24.9102H183.955V42.6641H184.955ZM184.455 24.4102H175.021V25.4102H184.455V24.4102ZM174.521 24.9102V42.6641H175.521V24.9102H174.521ZM175.021 43.1641H184.455V42.1641H175.021V43.1641ZM198.253 37.9473V37.4473H197.753V37.9473H198.253ZM211.203 37.9473H211.703V37.4473H211.203V37.9473ZM211.203 47V47.5H211.703V47H211.203ZM198.253 47H197.753V47.5H198.253V47ZM198.253 38.4473H211.203V37.4473H198.253V38.4473ZM210.703 37.9473V47H211.703V37.9473H210.703ZM211.203 46.5H198.253V47.5H211.203V46.5ZM198.753 47V37.9473H197.753V47H198.753Z" fill="white"/>
<path d="M0.990226 13.3603C0.698234 13.5127 0.406242 13.8046 0.253899 14.1093C-7.40867e-06 14.6045 -7.41333e-06 14.7568 0.0253832 39.6142L0.0634691 64.624L0.330071 64.9668C0.469719 65.1572 0.749016 65.4365 0.939445 65.5761L1.28222 65.8427H32.5H63.7177L64.0605 65.5761C64.2509 65.4365 64.5302 65.1572 64.6699 64.9668L64.9365 64.624L64.9746 39.6142C65 14.7441 65 14.6045 64.746 14.1093C64.581 13.7793 64.3144 13.5127 63.9843 13.3476C63.4892 13.0937 63.3115 13.0937 32.4746 13.0937C1.84081 13.1064 1.45995 13.1064 0.990226 13.3603ZM61.1914 39.5V62.0976H32.5H3.80858V39.5V16.9023H32.5H61.1914V39.5Z" fill="white"/>
<path d="M31.8017 19.3652C31.5859 19.454 31.2558 19.7206 31.0654 19.9365C29.8847 21.3456 31.1162 23.288 32.9697 22.9326C33.541 22.831 34.2138 22.1581 34.3408 21.5869C34.5439 20.6982 34.0234 19.708 33.1728 19.3652C32.665 19.1494 32.2968 19.1494 31.8017 19.3652Z" fill="white"/>
<path d="M9.44528 21.3583C8.86129 21.5234 8.29001 22.2343 8.18844 22.8945C8.15036 23.1992 8.12497 25.8144 8.15036 28.7089L8.18844 33.9775L8.48044 34.3964C9.26754 35.4755 10.8164 35.5009 11.6162 34.4472C11.8574 34.1171 11.8701 33.8759 11.9082 28.3916C11.9463 21.8789 11.9716 22.0439 10.9179 21.498C10.3213 21.1933 10.0673 21.1806 9.44528 21.3583Z" fill="white"/>
<path d="M31.9413 25.4082C30.748 25.7764 30.2274 27.4014 30.9892 28.3789C32.1444 29.8389 34.5439 28.9121 34.3661 27.0713C34.2392 25.8779 33.0585 25.0654 31.9413 25.4082Z" fill="white"/>
<path d="M31.4717 31.7939C29.9229 32.8222 30.6465 35.2343 32.5 35.2343C34.3535 35.2343 35.0772 32.8222 33.5283 31.7939C33.2363 31.5908 32.9063 31.5019 32.5 31.5019C32.0938 31.5019 31.7637 31.5908 31.4717 31.7939Z" fill="white"/>
<path d="M19.3603 33.7744C18.7001 34.1806 18.497 34.5107 18.4335 35.247C18.3573 36.123 18.6874 36.707 19.4999 37.0879C21.1503 37.9004 22.8388 35.9707 21.8612 34.3838C21.3534 33.584 20.1474 33.2793 19.3603 33.7744Z" fill="white"/>
<path d="M31.6621 37.7734C31.04 38.0527 30.6592 38.6875 30.6592 39.4619C30.6592 40.541 31.4336 41.3408 32.5 41.3408C33.5664 41.3408 34.3408 40.541 34.3408 39.4619C34.3408 38.0527 32.9951 37.2021 31.6621 37.7734Z" fill="white"/>
<path d="M31.5859 43.956C31.04 44.2353 30.5957 44.9843 30.5957 45.5937C30.5957 46.2285 31.04 46.9521 31.6113 47.2441C31.8779 47.3838 32.2842 47.498 32.5 47.498C33.4648 47.498 34.4043 46.5586 34.4043 45.5937C34.4043 44.959 33.96 44.2353 33.3887 43.9433C32.7666 43.6259 32.1953 43.6259 31.5859 43.956Z" fill="white"/>
<path d="M54.082 43.9053C53.8408 44.0322 53.5107 44.3242 53.3584 44.5654L53.0664 44.9971V50.6592C53.0664 56.0801 53.0791 56.334 53.3203 56.7402C54.0947 58.0098 55.9102 57.9463 56.5957 56.626L56.875 56.0674L56.8496 50.5195C56.8115 45.1494 56.7988 44.9717 56.5449 44.6289C55.9102 43.7656 54.9072 43.4736 54.082 43.9053Z" fill="white"/>
<path d="M31.8017 49.9609C31.5859 50.0498 31.2558 50.3164 31.0654 50.5322C29.8847 51.9414 31.1162 53.8838 32.9697 53.5283C33.541 53.4268 34.2138 52.7539 34.3408 52.1826C34.5439 51.294 34.0234 50.3037 33.1728 49.9609C32.665 49.7451 32.2968 49.7451 31.8017 49.9609Z" fill="white"/>
<path d="M31.9413 56.0039C30.748 56.3721 30.2274 57.9971 30.9892 58.9746C32.1444 60.4346 34.5439 59.5078 34.3661 57.667C34.2392 56.4736 33.0585 55.6611 31.9413 56.0039Z" fill="white"/>
</svg>
