<svg id="wave" style="transform:rotate(180deg); transition: 0.3s" viewBox="0 0 1440 110" version="1.1" xmlns="http://www.w3.org/2000/svg"><defs><linearGradient id="sw-gradient-0" x1="0" x2="0" y1="1" y2="0"><stop stop-color="rgba(0, 0, 0, 1)" offset="0%"></stop><stop stop-color="rgba(127.82, 127.694, 127.414, 1)" offset="100%"></stop></linearGradient></defs><path style="transform:translate(0, 0px); opacity:1" fill="url(#sw-gradient-0)" d="M0,33L80,40.3C160,48,320,62,480,67.8C640,73,800,70,960,64.2C1120,59,1280,51,1440,45.8C1600,40,1760,37,1920,34.8C2080,33,2240,33,2400,42.2C2560,51,2720,70,2880,66C3040,62,3200,37,3360,34.8C3520,33,3680,55,3840,66C4000,77,4160,77,4320,64.2C4480,51,4640,26,4800,23.8C4960,22,5120,44,5280,44C5440,44,5600,22,5760,14.7C5920,7,6080,15,6240,22C6400,29,6560,37,6720,45.8C6880,55,7040,66,7200,64.2C7360,62,7520,48,7680,47.7C7840,48,8000,62,8160,58.7C8320,55,8480,33,8640,22C8800,11,8960,11,9120,18.3C9280,26,9440,40,9600,38.5C9760,37,9920,18,10080,18.3C10240,18,10400,37,10560,47.7C10720,59,10880,62,11040,53.2C11200,44,11360,22,11440,11L11520,0L11520,110L11440,110C11360,110,11200,110,11040,110C10880,110,10720,110,10560,110C10400,110,10240,110,10080,110C9920,110,9760,110,9600,110C9440,110,9280,110,9120,110C8960,110,8800,110,8640,110C8480,110,8320,110,8160,110C8000,110,7840,110,7680,110C7520,110,7360,110,7200,110C7040,110,6880,110,6720,110C6560,110,6400,110,6240,110C6080,110,5920,110,5760,110C5600,110,5440,110,5280,110C5120,110,4960,110,4800,110C4640,110,4480,110,4320,110C4160,110,4000,110,3840,110C3680,110,3520,110,3360,110C3200,110,3040,110,2880,110C2720,110,2560,110,2400,110C2240,110,2080,110,1920,110C1760,110,1600,110,1440,110C1280,110,1120,110,960,110C800,110,640,110,480,110C320,110,160,110,80,110L0,110Z"></path></svg>