<svg width="100%" height="100%" id="svg" viewBox="0 0 1440 690" xmlns="http://www.w3.org/2000/svg"><defs><linearGradient id="gradient" x1="100%" y1="50%" x2="0%" y2="50%"><stop offset="0%" stop-color="rgba(247, 141, 167, 1)"></stop><stop offset="100%" stop-color="rgba(142, 209, 252, 1)"></stop></linearGradient></defs><path d="M 0,700 C 0,700 0,233 0,233 C 140.03571428571428,265.6428571428571 280.07142857142856,298.2857142857143 410,313 C 539.9285714285714,327.7142857142857 659.75,324.5 784,294 C 908.25,263.5 1036.9285714285713,205.71428571428572 1147,191 C 1257.0714285714287,176.28571428571428 1348.5357142857142,204.64285714285714 1440,233 C 1440,233 1440,700 1440,700 Z" stroke="none" stroke-width="0" fill="url(#gradient)" fill-opacity="0.53" class="path-0" style="transition: all 300ms cubic-bezier(0.4, 0, 0.2, 1) 150ms;"></path><path d="M 0,700 C 0,700 0,466 0,466 C 107.75,411.9642857142857 215.5,357.92857142857144 327,386 C 438.5,414.07142857142856 553.7500000000001,524.2500000000001 681,531 C 808.2499999999999,537.7499999999999 947.5,441.07142857142856 1076,413 C 1204.5,384.92857142857144 1322.25,425.4642857142857 1440,466 C 1440,466 1440,700 1440,700 Z" stroke="none" stroke-width="0" fill="url(#gradient)" fill-opacity="1" class="path-1" style="transition: all 300ms cubic-bezier(0.4, 0, 0.2, 1) 150ms;"></path></svg>